<svg viewBox="0 0 138.96 17.47" version="1.1" id="svg1409" xmlns="http://www.w3.org/2000/svg"><defs id="defs1383"><style id="style1381">.cls-1{fill:#f90}</style></defs><g id="Layer_2" data-name="Layer 2"><g id="development"><path class="cls-1" d="M7.05 2.44a6.3 6.3 0 1 1-6.3 6.3 6.3 6.3 0 0 1 6.3-6.3m0-.75a7 7 0 1 0 7 7.05 7.05 7.05 0 0 0-7-7Z" id="path1385"/><g aria-label="MINISTRY OF CULTURE" transform="translate(25 12.64)" id="text1401" style="font-weight:500;font-size:12px;font-family:Semplicita-Medium,Semplicità;fill:#019aed"><path d="M1.884-8.76.456-1.404C.384-1.008.168 0 .168 0H1.32s.132-.768.204-1.188l.6-3.276c.084-.468.168-.996.156-1.116l.048-.012c.036.156.24.732.432 1.164L4.836.288l2.088-4.68c.192-.432.408-1.008.444-1.164l.048.012c-.012.12.024.672.108 1.14L8.136-1.2c.072.396.132.804.204 1.2h1.152s-.168-.876-.276-1.416L7.74-8.76 5.352-3.372c-.252.576-.468 1.2-.48 1.332h-.048c-.012-.12-.168-.672-.468-1.332Z" style="font-weight:500;font-size:12px;font-family:Semplicita-Medium,Semplicità;fill:#019aed" id="path1493"/><path d="M10.507687-8.4c0 .228.012 1.02.012 1.44v5.52c0 .42-.012 1.212-.012 1.44h1.164001c0-.228-.012-1.02-.012-1.44v-5.52c0-.42.012-1.212.012-1.44z" style="font-weight:500;font-size:12px;font-family:Semplicita-Medium,Semplicità;fill:#019aed" id="path1495"/><path d="M20.544187.336V-6.96c0-.42.012-1.212.012-1.44h-1.164c0 .228.012 1.02.012 1.44v3.84c0 .456.06.768.084.888l-.036.024c-.24-.336-.612-.708-.96-1.068l-5.399999-5.46v7.296c0 .42-.012 1.212-.012 1.44h1.163999c0-.228-.012-1.02-.012-1.44v-3.84c0-.456-.06-.768-.084-.888l.036-.024c.24.336.612.708.96 1.068z" style="font-weight:500;font-size:12px;font-family:Semplicita-Medium,Semplicità;fill:#019aed" id="path1497"/><path d="M21.968625-8.4c0 .228.012 1.02.012 1.44v5.52c0 .42-.012 1.212-.012 1.44h1.164c0-.228-.012-1.02-.012-1.44v-5.52c0-.42.012-1.212.012-1.44z" style="font-weight:500;font-size:12px;font-family:Semplicita-Medium,Semplicità;fill:#019aed" id="path1499"/><path d="M24.097125-1.44c.432.78 1.284 1.584 2.616 1.584 1.548 0 2.52-.948 2.52-2.304 0-1.344-1.02-2.1-1.956-2.748-.792-.552-1.5-.984-1.5-1.716 0-.492.348-.912 1.008-.912s1.092.432 1.392.84l.876-.66c-.468-.564-1.152-1.188-2.268-1.188-1.272 0-2.136.828-2.136 1.968 0 1.224 1.02 1.908 1.956 2.568.768.54 1.488 1.068 1.488 1.944 0 .66-.516 1.176-1.38 1.176-.78 0-1.332-.54-1.644-1.08z" style="font-weight:500;font-size:12px;font-family:Semplicita-Medium,Semplicità;fill:#019aed" id="path1501"/><path d="M34.820437-8.412c-.227999 0-1.02.012-1.44.012h-2.124c-.42 0-1.212-.012-1.44-.012v1.08c.228 0 1.02-.012 1.44-.012h.492001v5.904c0 .42-.012 1.212-.012 1.44h1.164001c0-.228-.012-1.02-.012-1.44v-5.904h.491999c.42 0 1.212001.012 1.44.012z" style="font-weight:500;font-size:12px;font-family:Semplicita-Medium,Semplicità;fill:#019aed" id="path1503"/><path d="M39.464 0h1.248s-.396-.804-.624-1.296L39.032-3.54c-.072-.156-.144-.264-.204-.324l.012-.024c.948-.228 1.584-1.128 1.584-2.184 0-1.284-.924-2.328-2.328-2.328H35.6v6.96c0 .42-.012 1.212-.012 1.44h1.164c0-.228-.012-1.02-.012-1.44v-2.304h.984l1.26 2.676c.192.396.36.804.48 1.068zm-1.512-7.416c.852 0 1.332.6 1.332 1.332 0 .732-.48 1.332-1.332 1.332H36.74v-2.664z" style="letter-spacing:-.02em" id="path1505"/><path d="M43.74 0h1.164c0-.228-.012-1.02-.012-1.44v-2.244l1.836-3.24c.288-.504.564-.996.852-1.476h-1.272c-.168.3-.324.6-.504.912l-1.092 1.932c-.204.372-.396.756-.396.828h-.048c0-.072-.168-.456-.384-.828l-1.128-1.92c-.192-.324-.348-.612-.528-.924h-1.296c.108.192.696 1.14.912 1.5l1.908 3.252v2.208c0 .42-.012 1.212-.012 1.44z" id="path1507"/><path d="M56.357813-8.64c-2.448 0-4.44 1.992-4.44 4.44 0 2.448 1.992 4.44 4.44 4.44 2.448 0 4.44-1.992 4.44-4.44 0-2.448-1.992-4.44-4.44-4.44zm0 1.056c1.824 0 3.3 1.512 3.3 3.384 0 1.872-1.476 3.384-3.3 3.384-1.824 0-3.3-1.512-3.3-3.384 0-1.872 1.476-3.384 3.3-3.384z" id="path1509"/><path d="M61.881563-1.44c0 .42-.012 1.212-.012 1.44h1.164c0-.228-.012-1.02-.012-1.44v-2.64h.924c.42 0 1.212.012 1.44.012v-1.08c-.228 0-1.02.012-1.44.012h-.924v-2.232h1.548c.42 0 1.212.012 1.44.012v-1.056c-.228 0-1.02.012-1.44.012h-2.688z" id="path1511"/><path d="M77.596313-1.98c-.648.708-1.608 1.164-2.676 1.164-1.824 0-3.3-1.512-3.3-3.384 0-1.872 1.476-3.384 3.3-3.384 1.008 0 1.92.468 2.52 1.2l.816-.744c-.816-.924-2.004-1.512-3.336-1.512-2.448 0-4.44 1.992-4.44 4.44 0 2.448 1.992 4.44 4.44 4.44 1.368 0 2.592-.552 3.444-1.44z" id="path1513"/><path d="M80.432-8.4h-1.164c0 .228.012 1.02.012 1.44v4.32c0 .936.252 1.512.696 1.98.588.624 1.524.9 2.64.9 1.572 0 2.532-.528 2.904-1.032V-6.96c0-.42.012-1.212.012-1.44h-1.164c0 .228.012 1.02.012 1.44v5.712c-.24.216-.84.48-1.764.48-.732 0-1.38-.204-1.764-.612-.312-.324-.432-.816-.432-1.5v-4.08c0-.42.012-1.212.012-1.44z" style="letter-spacing:-.01em" id="path1515"/><path d="M86.589998 0h2.292c.42 0 1.212.012 1.44.012v-1.08c-.228 0-1.02.012-1.44.012h-1.152V-6.96c0-.42.012-1.212.012-1.44h-1.164c0 .228.012 1.02.012 1.44z" style="letter-spacing:-.06em" id="path1517"/><path d="M94.981998-8.412c-.228 0-1.02.012-1.44.012h-2.124c-.42 0-1.212-.012-1.44-.012v1.08c.228 0 1.02-.012 1.44-.012h.492v5.904c0 .42-.012 1.212-.012 1.44h1.164c0-.228-.012-1.02-.012-1.44v-5.904h.492c.42 0 1.212.012 1.44.012z" id="path1519"/><path d="M96.902002-8.4h-1.164c0 .228.012 1.02.012 1.44v4.32c0 .936.252 1.512.696 1.98.588.624 1.524.9 2.64.9C100.658.24 101.618-.288 101.99-.792V-6.96c0-.42.012-1.212.012-1.44h-1.164c0 .228.012 1.02.012 1.44v5.712c-.24.216-.84.48-1.763998.48-.732 0-1.38-.204-1.764-.612-.312-.324-.432-.816-.432-1.5v-4.08c0-.42.012-1.212.012-1.44z" style="letter-spacing:-.01em" id="path1521"/><path d="M106.924 0h1.248s-.396-.804-.624-1.296l-1.056-2.244c-.072-.156-.144-.264-.204-.324l.012-.024c.948-.228 1.584-1.128 1.584-2.184 0-1.284-.924-2.328-2.328-2.328h-2.496v6.96c0 .42-.012 1.212-.012 1.44h1.164c0-.228-.012-1.02-.012-1.44v-2.304h.984l1.26 2.676c.192.396.36.804.48 1.068zm-1.512-7.416c.852 0 1.332.6 1.332 1.332 0 .732-.48 1.332-1.332 1.332H104.2v-2.664z" id="path1523"/><path d="M108.96625 0h3.024c.42 0 1.212.012 1.44.012v-1.128c-.228 0-1.02.012-1.44.012h-1.884v-2.952h1.056c.42 0 1.212.012 1.44.012v-1.104c-.228 0-1.02.012-1.44.012h-1.056v-2.208h1.644c.42 0 1.212.012 1.44.012v-1.08c-.228 0-1.02.012-1.44.012h-2.784z" id="path1525"/></g><path class="cls-1" id="rect1403" d="M19.04 0h.75v17.47h-.75z"/><path d="M11.5 4.28a6.32 6.32 0 0 0-8.9 0l-.07.08-.09.1a6.3 6.3 0 0 0 0 8.54l.17.19a6.31 6.31 0 0 0 8.91 0l.17-.19a6.3 6.3 0 0 0-.19-8.72Zm-4.45 9.4a4.93 4.93 0 0 1-3.5-1.45 1.17 1.17 0 0 1 0-1.67 1.2 1.2 0 0 1 1.64 0 .52.52 0 0 0-.11.1 1.07 1.07 0 0 0 0 1.53 1.07 1.07 0 0 0 .76.32 1.12 1.12 0 0 0 .77-.32 1.1 1.1 0 0 0 .32-.77A2.55 2.55 0 0 0 2.59 9.6a2.37 2.37 0 0 0-.32.39 5.12 5.12 0 0 1 0-2.52 3 3 0 0 0 .32.39 2.53 2.53 0 0 0 3.59 0 2.51 2.51 0 0 0 .75-1.79 1.05 1.05 0 0 0-.32-.77 1.09 1.09 0 0 0-1.53 0 1.07 1.07 0 0 0-.32.76 1.12 1.12 0 0 0 .32.77l.12.09a1.18 1.18 0 0 1-2-.86 1.14 1.14 0 0 1 .35-.83 4.95 4.95 0 0 1 7 0 1.17 1.17 0 0 1 0 1.67 1.2 1.2 0 0 1-1.64 0A.52.52 0 0 0 9 6.84a1 1 0 0 0 .32-.76A1.07 1.07 0 0 0 9 5.31a1.08 1.08 0 0 0-1.84.77 2.5 2.5 0 0 0 .74 1.79 2.52 2.52 0 0 0 3.59 0 2.37 2.37 0 0 0 .32-.39 4.72 4.72 0 0 1 0 2.51 2.37 2.37 0 0 0-.32-.39 2.54 2.54 0 0 0-4.33 1.79 1.09 1.09 0 0 0 .31.77 1.12 1.12 0 0 0 .77.32 1.07 1.07 0 0 0 .76-.32 1.07 1.07 0 0 0 0-1.53.52.52 0 0 0-.11-.1 1.18 1.18 0 0 1 1.64 1.7 4.91 4.91 0 0 1-3.48 1.45Z" id="path1405" style="fill:#019aed"/></g></g></svg>