<svg viewBox="0 0 200.57 17.47" version="1.1" id="svg846" xmlns="http://www.w3.org/2000/svg"><defs id="defs824"><style id="style822">.cls-1{fill:#f90}</style></defs><g id="Layer_2" data-name="Layer 2"><g id="development"><path class="cls-1" d="M7.05 2.44a6.3 6.3 0 1 1-6.3 6.3 6.3 6.3 0 0 1 6.3-6.3m0-.75a7 7 0 1 0 7 7.05 7.05 7.05 0 0 0-7-7Z" id="path826"/><g aria-label="ASSEMBLY OF THE SOUTHPACIFIC" transform="translate(25 12.64)" id="text838" style="font-weight:500;font-size:12px;font-family:Semplicita-Medium,Semplicità;fill:#019aed"><path d="M6.744-.84c.108.228.252.552.372.84h1.236c-.084-.204-.432-.924-.6-1.308L4.308-8.856.96-1.308C.792-.924.456-.204.36 0h1.236c.12-.288.264-.612.372-.84l.144-.336h4.476ZM2.952-2.232c-.216 0-.396.048-.42.072l-.024-.048c.024-.012.12-.12.204-.312l1.296-2.916c.228-.516.288-.84.288-.9h.048c0 .06.06.384.3.9L5.976-2.52c.108.24.168.3.192.312l-.024.048c-.036-.024-.192-.072-.42-.072Z" style="font-weight:500;font-size:12px;font-family:Semplicita-Medium,Semplicità;fill:#019aed" id="path1049"/><path d="M8.86275-1.44c.432.78 1.284 1.584 2.616 1.584 1.548 0 2.52-.948 2.52-2.304 0-1.344-1.02-2.1-1.956-2.748-.792-.552-1.5-.984-1.5-1.716 0-.492.348-.912 1.008-.912s1.092.432 1.392.84l.876-.66c-.468-.564-1.152-1.188-2.268-1.188-1.272 0-2.136.828-2.136 1.968 0 1.224 1.02 1.908 1.956 2.568.768.54 1.488 1.068 1.488 1.944 0 .66-.516 1.176-1.38 1.176-.78 0-1.332-.54-1.644-1.08z" style="font-weight:500;font-size:12px;font-family:Semplicita-Medium,Semplicità;fill:#019aed" id="path1051"/><path d="M14.558063-1.44c.432.78 1.284 1.584 2.616 1.584 1.547999 0 2.519999-.948 2.519999-2.304 0-1.344-1.02-2.1-1.955999-2.748-.792001-.552-1.500001-.984-1.500001-1.716 0-.492.348-.912 1.008-.912s1.092.432 1.392.84l.876001-.66c-.468001-.564-1.152001-1.188-2.268001-1.188-1.271999 0-2.135999.828-2.135999 1.968 0 1.224 1.019999 1.908 1.955999 2.568.768001.54 1.488 1.068 1.488 1.944 0 .66-.516 1.176-1.379999 1.176-.780001 0-1.332-.54-1.644-1.08z" style="font-weight:500;font-size:12px;font-family:Semplicita-Medium,Semplicità;fill:#019aed" id="path1053"/><path d="M20.709375 0h3.024c.42 0 1.212.012 1.44.012v-1.128c-.228 0-1.02.012-1.44.012h-1.884v-2.952h1.056c.42 0 1.212.012 1.44.012v-1.104c-.228 0-1.02.012-1.44.012h-1.056v-2.208h1.644c.42 0 1.212.012 1.44.012v-1.08c-.228 0-1.02.012-1.44.012h-2.784z" style="font-weight:500;font-size:12px;font-family:Semplicita-Medium,Semplicità;fill:#019aed" id="path1055"/><path d="m27.594937-8.76-1.428 7.356c-.072.396-.288 1.404-.288 1.404h1.152s.132-.768.204-1.188l.6-3.276c.084-.468.168001-.996.156-1.116l.048-.012c.036.156.240001.732.432001 1.164L30.546937.288l2.088-4.68c.192-.432.408-1.008.444001-1.164l.048.012c-.012.12.024.672.108 1.14l.612001 3.204c.072.396.131999.804.204 1.2h1.152s-.168001-.876-.276001-1.416L33.450939-8.76l-2.388001 5.388c-.251999.576-.468 1.2-.48 1.332h-.048c-.012-.12-.168-.672-.467999-1.332z" style="font-weight:500;font-size:12px;font-family:Semplicita-Medium,Semplicità;fill:#019aed" id="path1057"/><path d="M35.990625 0h2.724c1.344 0 2.436-1.092 2.436-2.436 0-.996-.636-1.848-1.38-2.04v-.048c.564-.228.936-.852.936-1.62 0-1.248-1.02-2.256-2.268-2.256h-2.448V0zm2.628-3.84c.768 0 1.392.624 1.392 1.404 0 .756-.624 1.38-1.392 1.38h-1.488V-3.84Zm.984-2.304c0 .72-.576 1.296-1.284 1.296h-1.188v-2.568h1.188c.708 0 1.284.564 1.284 1.272z" style="font-weight:500;font-size:12px;font-family:Semplicita-Medium,Semplicità;fill:#019aed" id="path1059"/><path d="M42.219999 0h2.292c.42 0 1.212.012 1.44.012v-1.08c-.228 0-1.02.012-1.44.012h-1.152V-6.96c0-.42.012-1.212.012-1.44h-1.164c0 .228.012 1.02.012 1.44z" style="letter-spacing:-.12em" id="path1061"/><path d="M47.819998 0h1.164c0-.228-.012-1.02-.012-1.44v-2.244l1.836-3.24c.288-.504.564-.996.852-1.476h-1.272c-.168.3-.324.6-.504.912l-1.092 1.932c-.204.372-.396.756-.396.828h-.048c0-.072-.168-.456-.384-.828l-1.128-1.92c-.192-.324-.348-.612-.528-.924h-1.296c.108.192.696 1.14.912 1.5l1.908 3.252v2.208c0 .42-.012 1.212-.012 1.44z" id="path1063"/><path d="M60.437811-8.64c-2.448 0-4.44 1.992-4.44 4.44 0 2.448 1.992 4.44 4.44 4.44 2.448 0 4.44-1.992 4.44-4.44 0-2.448-1.992-4.44-4.44-4.44zm0 1.056c1.824 0 3.3 1.512 3.3 3.384 0 1.872-1.476 3.384-3.3 3.384-1.824 0-3.3-1.512-3.3-3.384 0-1.872 1.476-3.384 3.3-3.384z" id="path1065"/><path d="M65.961561-1.44c0 .42-.012 1.212-.012 1.44h1.164c0-.228-.012-1.02-.012-1.44v-2.64h.924c.42 0 1.212.012 1.44.012v-1.08c-.228 0-1.02.012-1.44.012h-.924v-2.232h1.548c.42 0 1.212.012 1.44.012v-1.056c-.228 0-1.02.012-1.44.012h-2.688z" id="path1067"/><path d="M79.252311-8.412c-.228 0-1.02.012-1.44.012h-2.124c-.42 0-1.212-.012-1.44-.012v1.08c.228 0 1.02-.012 1.44-.012h.492v5.904c0 .42-.012 1.212-.012 1.44h1.164c0-.228-.012-1.02-.012-1.44v-5.904h.492c.42 0 1.212.012 1.44.012z" id="path1069"/><path d="M86.312061-6.96c0-.42.012-1.212.012-1.44h-1.164c0 .228.012 1.02.012 1.44v1.884h-4.008V-6.96c0-.42.012-1.212.012-1.44h-1.164c0 .228.012 1.02.012 1.44v5.52c0 .42-.012 1.212-.012 1.44h1.164c0-.228-.012-1.02-.012-1.44v-2.58h4.008v2.58c0 .42-.012 1.212-.012 1.44h1.164c0-.228-.012-1.02-.012-1.44z" id="path1071"/><path d="M87.500623 0h3.024c.42 0 1.212.012 1.44.012v-1.128c-.228 0-1.02.012-1.44.012h-1.884v-2.952h1.056c.42 0 1.212.012 1.44.012v-1.104c-.228 0-1.02.012-1.44.012h-1.056v-2.208h1.644c.42 0 1.212.012 1.44.012v-1.08c-.228 0-1.02.012-1.44.012h-2.784z" id="path1073"/><path d="M96.255561-1.44c.432.78 1.284 1.584 2.616 1.584 1.547999 0 2.519999-.948 2.519999-2.304 0-1.344-1.02-2.1-1.955999-2.748-.792-.552-1.5-.984-1.5-1.716 0-.492.348-.912 1.008-.912s1.091999.432 1.391999.84l.876-.66c-.468-.564-1.152-1.188-2.267999-1.188-1.272 0-2.136.828-2.136 1.968 0 1.224 1.02 1.908 1.956 2.568.768.54 1.487999 1.068 1.487999 1.944 0 .66-.515999 1.176-1.379999 1.176-.78 0-1.332-.54-1.644-1.08z" id="path1075"/><path d="M106.72687-8.64c-2.448 0-4.44 1.992-4.44 4.44 0 2.448 1.992 4.44 4.44 4.44 2.448 0 4.44-1.992 4.44-4.44 0-2.448-1.992-4.44-4.44-4.44zm0 1.056c1.824 0 3.3 1.512 3.3 3.384 0 1.872-1.476 3.384-3.3 3.384-1.824 0-3.3-1.512-3.3-3.384 0-1.872 1.476-3.384 3.3-3.384z" id="path1077"/><path d="M113.40262-8.4h-1.164c0 .228.012 1.02.012 1.44v4.32c0 .936.252 1.512.696 1.98.588.624 1.524.9 2.64.9 1.572 0 2.532-.528 2.904-1.032V-6.96c0-.42.012-1.212.012-1.44h-1.164c0 .228.012 1.02.012 1.44v5.712c-.24.216-.84.48-1.764.48-.732 0-1.38-.204-1.764-.612-.312-.324-.432-.816-.432-1.5v-4.08c0-.42.012-1.212.012-1.44z" id="path1079"/><path d="M124.25231-8.412c-.228 0-1.02.012-1.44.012h-2.124c-.42 0-1.212-.012-1.44-.012v1.08c.228 0 1.02-.012 1.44-.012h.492v5.904c0 .42-.012 1.212-.012 1.44h1.164c0-.228-.012-1.02-.012-1.44v-5.904h.492c.42 0 1.212.012 1.44.012z" id="path1081"/><path d="M131.31206-6.96c0-.42.012-1.212.012-1.44h-1.164c0 .228.012 1.02.012 1.44v1.884h-4.008V-6.96c0-.42.012-1.212.012-1.44h-1.164c0 .228.012 1.02.012 1.44v5.52c0 .42-.012 1.212-.012 1.44h1.164c0-.228-.012-1.02-.012-1.44v-2.58h4.008v2.58c0 .42-.012 1.212-.012 1.44h1.164c0-.228-.012-1.02-.012-1.44z" id="path1083"/><path d="M138.36-3.432c1.392 0 2.52-1.104 2.52-2.472 0-1.38-1.128-2.496-2.52-2.496h-2.28v6.96c0 .42-.012 1.212-.012 1.44h1.164c0-.228-.012-1.02-.012-1.44v-1.992zm-1.14-1.008v-2.976h1.092c.804 0 1.464.672 1.464 1.512 0 .804-.66 1.464-1.464 1.464z" style="letter-spacing:-.12em" id="path1085"/><path d="M146.434-.84c.108.228.252.552.372.84h1.236c-.084-.204-.432-.924-.6-1.308l-3.444-7.548-3.348 7.548c-.168.384-.504 1.104-.6 1.308h1.236c.12-.288.264-.612.372-.84l.144-.336h4.476zm-3.792-1.392c-.216 0-.396.048-.42.072l-.024-.048c.024-.012.12-.12.204-.312l1.296-2.916c.228-.516.288-.84.288-.9h.048c0 .06.06.384.3.9l1.332 2.916c.108.24.168.3.192.312l-.024.048c-.036-.024-.192-.072-.42-.072z" style="letter-spacing:-.08em" id="path1087"/><path d="M155.006-1.98c-.648.708-1.608 1.164-2.676 1.164-1.824 0-3.3-1.512-3.3-3.384 0-1.872 1.476-3.384 3.3-3.384 1.008 0 1.92.468 2.52 1.2l.816-.744c-.816-.924-2.004-1.512-3.336-1.512-2.448 0-4.44 1.992-4.44 4.44 0 2.448 1.992 4.44 4.44 4.44 1.368 0 2.592-.552 3.444-1.44z" id="path1089"/><path d="M156.95675-8.4c0 .228.012 1.02.012 1.44v5.52c0 .42-.012 1.212-.012 1.44h1.164c0-.228-.012-1.02-.012-1.44v-5.52c0-.42.012-1.212.012-1.44z" id="path1091"/><path d="M159.54125-1.44c0 .42-.012 1.212-.012 1.44h1.164c0-.228-.012-1.02-.012-1.44v-2.64h.924c.42 0 1.212.012 1.44.012v-1.08c-.228 0-1.02.012-1.44.012h-.924v-2.232h1.548c.42 0 1.212.012 1.44.012v-1.056c-.228 0-1.02.012-1.44.012h-2.688z" id="path1093"/><path d="M164.87863-8.4c0 .228.012 1.02.012 1.44v5.52c0 .42-.012 1.212-.012 1.44h1.164c0-.228-.012-1.02-.012-1.44v-5.52c0-.42.012-1.212.012-1.44z" id="path1095"/><path d="M174.45913-1.98c-.648.708-1.608 1.164-2.676 1.164-1.824 0-3.3-1.512-3.3-3.384 0-1.872 1.476-3.384 3.3-3.384 1.008 0 1.92.468 2.52 1.2l.816-.744c-.816-.924-2.004-1.512-3.336-1.512-2.448 0-4.44 1.992-4.44 4.44 0 2.448 1.992 4.44 4.44 4.44 1.368 0 2.592-.552 3.444-1.44z" id="path1097"/></g><path class="cls-1" id="rect840" d="M19.04 0h.75v17.47h-.75z"/><path d="M11.68 13A6.29 6.29 0 0 0 2.6 4.29l-.17.21A6.22 6.22 0 0 0 .75 8.74a6.3 6.3 0 0 0 10.75 4.45Zm-4.63.69a4.94 4.94 0 0 1-4.94-4.95 5.15 5.15 0 0 1 .19-1.37 2.43 2.43 0 0 0 2 1.07h3.9a1.9 1.9 0 0 0 0-3.8 1.09 1.09 0 1 0 .53 2 .55.55 0 0 1-.53.43H4.32A1.08 1.08 0 0 1 3.24 6a1 1 0 0 1 .29-.73A4.88 4.88 0 0 1 7.05 3.8 4.94 4.94 0 0 1 12 8.74a4.71 4.71 0 0 1-.2 1.36A2.45 2.45 0 0 0 9.78 9H5.89a1.9 1.9 0 1 0 0 3.8A1.06 1.06 0 0 0 7 11.75a1.07 1.07 0 0 0-.34-.75 1.11 1.11 0 0 0-1.3-.17.54.54 0 0 1 .53-.43h3.89a1.07 1.07 0 0 1 .79 1.8 4.9 4.9 0 0 1-3.52 1.48Z" id="path842" style="fill:#019aed"/></g></g></svg>