<svg viewBox="0 0 116.2 17.47" version="1.1" id="svg848" xmlns="http://www.w3.org/2000/svg">
  <defs id="defs824">
    <style id="style822">
      .cls-1{fill:#f90}
    </style>
  </defs>
  <g id="Layer_2" data-name="Layer 2">
    <g id="development">
      <path class="cls-1" d="M7.05 2.44a6.3 6.3 0 1 1-6.3 6.3 6.3 6.3 0 0 1 6.3-6.3m0-.75a7 7 0 1 0 7 7.05 7.05 7.05 0 0 0-7-7Z" id="path826"/>
      <g aria-label="ADMINISTRATION" transform="translate(25 12.64)" id="text840" font-weight="500" font-size="12" font-family="Semplicita-Medium,Semplicità" fill="#019aed">
        <path d="M6.744-.84c.108.228.252.552.372.84h1.236c-.084-.204-.432-.924-.6-1.308L4.308-8.856.96-1.308C.792-.924.456-.204.36 0h1.236c.12-.288.264-.612.372-.84l.144-.336h4.476ZM2.952-2.232c-.216 0-.396.048-.42.072l-.024-.048c.024-.012.12-.12.204-.312l1.296-2.916c.228-.516.288-.84.288-.9h.048c0 .06.06.384.3.9L5.976-2.52c.108.24.168.3.192.312l-.024.048c-.036-.024-.192-.072-.42-.072Z" id="path1232" font-weight="500" font-size="12" font-family="Semplicita-Medium,Semplicità" fill="#019aed"/>
        <path d="M9.31 0h2.58c2.256 0 4.08-1.884 4.08-4.2 0-2.316-1.932-4.2-4.32-4.2H9.31Zm2.136-7.368c1.872 0 3.384 1.416 3.384 3.168 0 1.74-1.404 3.144-3.132 3.144H10.45v-6.312z" id="path1234" letter-spacing="-.02em"/>
        <path d="m18.103999-8.76-1.428 7.356c-.072.396-.288 1.404-.288 1.404h1.152s.132-.768.204-1.188l.6-3.276c.084-.468.168-.996.156-1.116l.048-.012c.036.156.24.732.432 1.164l2.076 4.716 2.088-4.68c.192-.432.408-1.008.444-1.164l.048.012c-.012.12.024.672.108 1.14l.612 3.204c.072.396.132.804.204 1.2h1.152s-.168-.876-.276-1.416l-1.476-7.344-2.388 5.388c-.252.576-.468 1.2-.48 1.332h-.048c-.012-.12-.168-.672-.468-1.332z" id="path1236"/>
        <path d="M26.727687-8.4c0 .228.012 1.02.012 1.44v5.52c0 .42-.012 1.212-.012 1.44h1.164c0-.228-.012-1.02-.012-1.44v-5.52c0-.42.012-1.212.012-1.44z" id="path1238"/>
        <path d="M36.764187.336V-6.96c0-.42.012-1.212.012-1.44h-1.164c0 .228.012 1.02.012 1.44v3.84c0 .456.06.768.084.888l-.036.024c-.24-.336-.612-.708-.96-1.068l-5.4-5.46v7.296c0 .42-.012 1.212-.012 1.44h1.164c0-.228-.012-1.02-.012-1.44v-3.84c0-.456-.06-.768-.084-.888l.036-.024c.24.336.612.708.96 1.068z" id="path1240"/>
        <path d="M38.188624-8.4c0 .228.012 1.02.012 1.44v5.52c0 .42-.012 1.212-.012 1.44h1.164c0-.228-.012-1.02-.012-1.44v-5.52c0-.42.012-1.212.012-1.44z" id="path1242"/>
        <path d="M40.317124-1.44c.432.78 1.284 1.584 2.616 1.584 1.548 0 2.52-.948 2.52-2.304 0-1.344-1.02-2.1-1.956-2.748-.792-.552-1.5-.984-1.5-1.716 0-.492.348-.912 1.008-.912s1.092.432 1.392.84l.876-.66c-.468-.564-1.152-1.188-2.268-1.188-1.272 0-2.136.828-2.136 1.968 0 1.224 1.02 1.908 1.956 2.568.768.54 1.488 1.068 1.488 1.944 0 .66-.516 1.176-1.38 1.176-.78 0-1.332-.54-1.644-1.08z" id="path1244"/>
        <path d="M51.040437-8.412c-.228 0-1.02.012-1.44.012h-2.124c-.42 0-1.212-.012-1.44-.012v1.08c.228 0 1.02-.012 1.44-.012h.492v5.904c0 .42-.012 1.212-.012 1.44h1.164c0-.228-.012-1.02-.012-1.44v-5.904h.492c.42 0 1.212.012 1.44.012z" id="path1246"/>
        <path d="M55.676187 0h1.248s-.396-.804-.624-1.296l-1.056-2.244c-.072-.156-.144-.264-.204-.324l.012-.024c.948-.228 1.584-1.128 1.584-2.184 0-1.284-.924-2.328-2.328-2.328h-2.496v6.96c0 .42-.012 1.212-.012 1.44h1.164c0-.228-.012-1.02-.012-1.44v-2.304h.984l1.26 2.676c.192.396.36.804.48 1.068zm-1.512-7.416c.852 0 1.332.6 1.332 1.332 0 .732-.48 1.332-1.332 1.332h-1.212v-2.664z" id="path1248"/>
        <path d="M63.874001-.84c.108.228.252.552.372.84h1.236c-.084-.204-.432-.924-.6-1.308l-3.444-7.548-3.348 7.548c-.168.384-.504 1.104-.6 1.308h1.236c.12-.288.264-.612.372-.84l.144-.336h4.476zm-3.792-1.392c-.216 0-.396.048-.42.072l-.024-.048c.024-.012.12-.12.204-.312l1.296-2.916c.228-.516.288-.84.288-.9h.048c0 .06.06.384.3.9l1.332 2.916c.108.24.168.3.192.312l-.024.048c-.036-.024-.192-.072-.42-.072z" id="path1250" letter-spacing="-.08em"/>
        <path d="M69.992-8.412c-.228 0-1.02.012-1.44.012h-2.124c-.42 0-1.212-.012-1.44-.012v1.08c.228 0 1.02-.012 1.44-.012h.492v5.904c0 .42-.012 1.212-.012 1.44h1.164c0-.228-.012-1.02-.012-1.44v-5.904h.492c.42 0 1.212.012 1.44.012z" id="path1252"/>
        <path d="M70.988004-8.4c0 .228.012 1.02.012 1.44v5.52c0 .42-.012 1.212-.012 1.44h1.164c0-.228-.012-1.02-.012-1.44v-5.52c0-.42.012-1.212.012-1.44z" id="path1254" letter-spacing="-.02em"/>
        <path d="M77.629999-8.64c-2.448 0-4.44 1.992-4.44 4.44 0 2.448 1.992 4.44 4.44 4.44 2.448 0 4.44-1.992 4.44-4.44 0-2.448-1.992-4.44-4.44-4.44zm0 1.056c1.824 0 3.3 1.512 3.3 3.384 0 1.872-1.476 3.384-3.3 3.384-1.824 0-3.3-1.512-3.3-3.384 0-1.872 1.476-3.384 3.3-3.384z" id="path1256"/>
        <path d="M90.605749.336V-6.96c0-.42.012-1.212.012-1.44h-1.164c0 .228.012 1.02.012 1.44v3.84c0 .456.06.768.084.888l-.036.024c-.24-.336-.612-.708-.96-1.068l-5.4-5.46v7.296c0 .42-.012 1.212-.012 1.44h1.164c0-.228-.012-1.02-.012-1.44v-3.84c0-.456-.06-.768-.084-.888l.036-.024c.24.336.612.708.96 1.068z" id="path1258"/>
      </g>
      <path class="cls-1" id="rect842" d="M19.04 0h.75v17.47h-.75z"/>
      <path d="M11.5 4.28a6.31 6.31 0 1 0 1.84 4.46 6.29 6.29 0 0 0-1.84-4.46ZM8 13.58a1.33 1.33 0 0 0 .37-.93 1.35 1.35 0 0 0-1.35-1.36 1.37 1.37 0 0 0-1.36 1.36 1.38 1.38 0 0 0 .37.93 4.92 4.92 0 0 1-2.51-1.35L3.36 12a1.45 1.45 0 0 0 .29 0 1.38 1.38 0 0 0 1-.4 1.36 1.36 0 0 0 0-1.92 1.4 1.4 0 0 0-1.92 0 1.31 1.31 0 0 0-.33.55 5 5 0 0 1-.25-1.55 5.09 5.09 0 0 1 .25-1.56 1.31 1.31 0 0 0 .33.55 1.33 1.33 0 0 0 1 .4 1.36 1.36 0 0 0 1-2.31 1.37 1.37 0 0 0-1.25-.37l.19-.21A4.94 4.94 0 0 1 6.05 3.9a1.34 1.34 0 0 0 0 1.87 1.31 1.31 0 0 0 1 .4A1.35 1.35 0 0 0 8 3.9a4.9 4.9 0 0 1 2.5 1.34l.19.21a1.35 1.35 0 0 0-1.24.37 1.35 1.35 0 0 0 0 1.91 1.32 1.32 0 0 0 1 .4 1.36 1.36 0 0 0 1-.4 1.29 1.29 0 0 0 .32-.55A4.82 4.82 0 0 1 12 8.74a4.71 4.71 0 0 1-.26 1.55 1.29 1.29 0 0 0-.32-.55 1.38 1.38 0 1 0-.69 2.26l-.19.21A4.92 4.92 0 0 1 8 13.58Z" id="path844" fill="#019aed"/>
    </g>
  </g>
</svg>
