<svg viewBox="0 0 169.55 17.47" version="1.1" id="svg846" xmlns="http://www.w3.org/2000/svg"><defs id="defs824"><style id="style822">.cls-1{fill:#f90}</style></defs><g id="Layer_2" data-name="Layer 2"><g id="development"><path class="cls-1" d="M7.05 2.44a6.3 6.3 0 1 1-6.3 6.3 6.3 6.3 0 0 1 6.3-6.3m0-.75a7 7 0 1 0 7 7.05 7.05 7.05 0 0 0-7-7Z" id="path826"/><g aria-label="MINISTRY OF ENGAGEMENT" transform="translate(25 12.64)" id="text838" style="font-weight:500;font-size:12px;font-family:Semplicita-Medium,Semplicità;fill:#019aed"><path d="M1.884-8.76.456-1.404C.384-1.008.168 0 .168 0H1.32s.132-.768.204-1.188l.6-3.276c.084-.468.168-.996.156-1.116l.048-.012c.036.156.24.732.432 1.164L4.836.288l2.088-4.68c.192-.432.408-1.008.444-1.164l.048.012c-.012.12.024.672.108 1.14L8.136-1.2c.072.396.132.804.204 1.2h1.152s-.168-.876-.276-1.416L7.74-8.76 5.352-3.372c-.252.576-.468 1.2-.48 1.332h-.048c-.012-.12-.168-.672-.468-1.332Z" style="font-weight:500;font-size:12px;font-family:Semplicita-Medium,Semplicità;fill:#019aed" id="path930"/><path d="M10.507687-8.4c0 .228.012 1.02.012 1.44v5.52c0 .42-.012 1.212-.012 1.44h1.164001c0-.228-.012-1.02-.012-1.44v-5.52c0-.42.012-1.212.012-1.44z" style="font-weight:500;font-size:12px;font-family:Semplicita-Medium,Semplicità;fill:#019aed" id="path932"/><path d="M20.544187.336V-6.96c0-.42.012-1.212.012-1.44h-1.164c0 .228.012 1.02.012 1.44v3.84c0 .456.06.768.084.888l-.036.024c-.24-.336-.612-.708-.96-1.068l-5.399999-5.46v7.296c0 .42-.012 1.212-.012 1.44h1.163999c0-.228-.012-1.02-.012-1.44v-3.84c0-.456-.06-.768-.084-.888l.036-.024c.24.336.612.708.96 1.068z" style="font-weight:500;font-size:12px;font-family:Semplicita-Medium,Semplicità;fill:#019aed" id="path934"/><path d="M21.968625-8.4c0 .228.012 1.02.012 1.44v5.52c0 .42-.012 1.212-.012 1.44h1.164c0-.228-.012-1.02-.012-1.44v-5.52c0-.42.012-1.212.012-1.44z" style="font-weight:500;font-size:12px;font-family:Semplicita-Medium,Semplicità;fill:#019aed" id="path936"/><path d="M24.097125-1.44c.432.78 1.284 1.584 2.616 1.584 1.548 0 2.52-.948 2.52-2.304 0-1.344-1.02-2.1-1.956-2.748-.792-.552-1.5-.984-1.5-1.716 0-.492.348-.912 1.008-.912s1.092.432 1.392.84l.876-.66c-.468-.564-1.152-1.188-2.268-1.188-1.272 0-2.136.828-2.136 1.968 0 1.224 1.02 1.908 1.956 2.568.768.54 1.488 1.068 1.488 1.944 0 .66-.516 1.176-1.38 1.176-.78 0-1.332-.54-1.644-1.08z" style="font-weight:500;font-size:12px;font-family:Semplicita-Medium,Semplicità;fill:#019aed" id="path938"/><path d="M34.820437-8.412c-.227999 0-1.02.012-1.44.012h-2.124c-.42 0-1.212-.012-1.44-.012v1.08c.228 0 1.02-.012 1.44-.012h.492001v5.904c0 .42-.012 1.212-.012 1.44h1.164001c0-.228-.012-1.02-.012-1.44v-5.904h.491999c.42 0 1.212001.012 1.44.012z" style="font-weight:500;font-size:12px;font-family:Semplicita-Medium,Semplicità;fill:#019aed" id="path940"/><path d="M39.464 0h1.248s-.396-.804-.624-1.296L39.032-3.54c-.072-.156-.144-.264-.204-.324l.012-.024c.948-.228 1.584-1.128 1.584-2.184 0-1.284-.924-2.328-2.328-2.328H35.6v6.96c0 .42-.012 1.212-.012 1.44h1.164c0-.228-.012-1.02-.012-1.44v-2.304h.984l1.26 2.676c.192.396.36.804.48 1.068zm-1.512-7.416c.852 0 1.332.6 1.332 1.332 0 .732-.48 1.332-1.332 1.332H36.74v-2.664z" style="letter-spacing:-.02em" id="path942"/><path d="M43.74 0h1.164c0-.228-.012-1.02-.012-1.44v-2.244l1.836-3.24c.288-.504.564-.996.852-1.476h-1.272c-.168.3-.324.6-.504.912l-1.092 1.932c-.204.372-.396.756-.396.828h-.048c0-.072-.168-.456-.384-.828l-1.128-1.92c-.192-.324-.348-.612-.528-.924h-1.296c.108.192.696 1.14.912 1.5l1.908 3.252v2.208c0 .42-.012 1.212-.012 1.44z" id="path944"/><path d="M56.357813-8.64c-2.448 0-4.44 1.992-4.44 4.44 0 2.448 1.992 4.44 4.44 4.44 2.448 0 4.44-1.992 4.44-4.44 0-2.448-1.992-4.44-4.44-4.44zm0 1.056c1.824 0 3.3 1.512 3.3 3.384 0 1.872-1.476 3.384-3.3 3.384-1.824 0-3.3-1.512-3.3-3.384 0-1.872 1.476-3.384 3.3-3.384z" id="path946"/><path d="M61.881563-1.44c0 .42-.012 1.212-.012 1.44h1.164c0-.228-.012-1.02-.012-1.44v-2.64h.924c.42 0 1.212.012 1.44.012v-1.08c-.228 0-1.02.012-1.44.012h-.924v-2.232h1.548c.42 0 1.212.012 1.44.012v-1.056c-.228 0-1.02.012-1.44.012h-2.688z" id="path948"/><path d="M70.600313 0h3.024c.42 0 1.212.012 1.44.012v-1.128c-.228 0-1.02.012-1.44.012h-1.884v-2.952h1.056c.42 0 1.212.012 1.44.012v-1.104c-.228 0-1.02.012-1.44.012h-1.056v-2.208h1.644c.42 0 1.212.012 1.44.012v-1.08c-.228 0-1.02.012-1.44.012h-2.784z" id="path950"/><path d="M83.653875.336V-6.96c0-.42.012-1.212.012-1.44h-1.164c0 .228.012 1.02.012 1.44v3.84c0 .456.06.768.084.888l-.036.024c-.24-.336-.612-.708-.96-1.068l-5.4-5.46v7.296c0 .42-.012 1.212-.012 1.44h1.164c0-.228-.012-1.02-.012-1.44v-3.84c0-.456-.06-.768-.084-.888l.036-.024c.24.336.612.708.96 1.068z" id="path952"/><path d="M91.502003-2.664c.204 0 .336-.048.372-.072l.036.048c-.036.024-.144.144-.228.36-.348.852-1.404 1.512-2.532 1.512-1.824 0-3.3-1.512-3.3-3.384 0-1.872 1.476-3.384 3.3-3.384 1.056 0 2.004.552 2.58 1.404l.84-.732c-.792-1.056-2.028-1.728-3.42-1.728-2.448 0-4.44 1.992-4.44 4.44 0 2.448 1.992 4.44 4.44 4.44 2.136 0 3.864-1.596 3.864-3.552 0-.144-.012-.276-.024-.408h-2.532c-.42 0-1.212-.012-1.44-.012v1.08c.228 0 1.02-.012 1.44-.012z" style="letter-spacing:-.06em" id="path954"/><path d="M99.494-.84c.108.228.252.552.372.84h1.236c-.084-.204-.432-.924-.6-1.308l-3.444-7.548-3.348 7.548c-.168.384-.504 1.104-.6 1.308h1.236c.12-.288.264-.612.372-.84l.144-.336h4.476zm-3.792-1.392c-.216 0-.396.048-.42.072l-.024-.048c.024-.012.12-.12.204-.312l1.296-2.916c.228-.516.288-.84.288-.9h.048c0 .06.06.384.3.9l1.332 2.916c.108.24.168.3.192.312l-.024.048c-.036-.024-.192-.072-.42-.072z" style="letter-spacing:-.08em" id="path956"/><path d="M107.732-2.664c.204 0 .336-.048.372-.072l.036.048c-.036.024-.144.144-.228.36-.348.852-1.404 1.512-2.532 1.512-1.824 0-3.3-1.512-3.3-3.384 0-1.872 1.476-3.384 3.3-3.384 1.056 0 2.004.552 2.58 1.404l.84-.732c-.792-1.056-2.028-1.728-3.42-1.728-2.448 0-4.44 1.992-4.44 4.44 0 2.448 1.992 4.44 4.44 4.44 2.136 0 3.864-1.596 3.864-3.552 0-.144-.012-.276-.024-.408h-2.532c-.42 0-1.212-.012-1.44-.012v1.08c.228 0 1.02-.012 1.44-.012z" style="letter-spacing:0" id="path958"/><path d="M110.27094 0h3.024c.42 0 1.212.012 1.44.012v-1.128c-.228 0-1.02.012-1.44.012h-1.884v-2.952h1.056c.42 0 1.212.012 1.44.012v-1.104c-.228 0-1.02.012-1.44.012h-1.056v-2.208h1.644c.42 0 1.212.012 1.44.012v-1.08c-.228 0-1.02.012-1.44.012h-2.784z" style="letter-spacing:0" id="path960"/><path d="m117.1565-8.76-1.428 7.356c-.072.396-.288 1.404-.288 1.404h1.152s.132-.768.204-1.188l.6-3.276c.084-.468.168-.996.156-1.116l.048-.012c.036.156.24.732.432 1.164l2.076 4.716 2.088-4.68c.192-.432.408-1.008.444-1.164l.048.012c-.012.12.024.672.108 1.14l.612 3.204c.072.396.132.804.204 1.2h1.152s-.168-.876-.276-1.416l-1.476-7.344-2.388 5.388c-.252.576-.468 1.2-.48 1.332h-.048c-.012-.12-.168-.672-.468-1.332z" style="letter-spacing:0" id="path962"/><path d="M125.55219 0h3.024c.42 0 1.212.012 1.44.012v-1.128c-.228 0-1.02.012-1.44.012h-1.884v-2.952h1.056c.42 0 1.212.012 1.44.012v-1.104c-.228 0-1.02.012-1.44.012h-1.056v-2.208h1.644c.42 0 1.212.012 1.44.012v-1.08c-.228 0-1.02.012-1.44.012h-2.784z" style="letter-spacing:0" id="path964"/><path d="M138.60575.336V-6.96c0-.42.012-1.212.012-1.44h-1.164c0 .228.012 1.02.012 1.44v3.84c0 .456.06.768.084.888l-.036.024c-.24-.336-.612-.708-.96-1.068l-5.4-5.46v7.296c0 .42-.012 1.212-.012 1.44h1.164c0-.228-.012-1.02-.012-1.44v-3.84c0-.456-.06-.768-.084-.888l.036-.024c.24.336.612.708.96 1.068z" style="letter-spacing:0" id="path966"/><path d="M144.37419-8.412c-.228 0-1.02.012-1.44.012h-2.124c-.42 0-1.212-.012-1.44-.012v1.08c.228 0 1.02-.012 1.44-.012h.492v5.904c0 .42-.012 1.212-.012 1.44h1.164c0-.228-.012-1.02-.012-1.44v-5.904h.492c.42 0 1.212.012 1.44.012z" style="letter-spacing:0" id="path968"/></g><path class="cls-1" id="rect840" d="M19.04 0h.75v17.47h-.75z"/><path d="M13.25 7.65A6.28 6.28 0 0 0 7 2.45h-.1A6.29 6.29 0 0 0 7 15a6.71 6.71 0 0 0 1.1-.09 6.31 6.31 0 0 0 5.12-7.29Zm-3.37-3a4.88 4.88 0 0 1 2 3.19A4.56 4.56 0 0 1 12 9a4.59 4.59 0 0 0-1.1-2.24 3.72 3.72 0 0 0-3.1-1.2 2.69 2.69 0 0 0-2.4 2.07 2.19 2.19 0 0 0 .65 2 1.26 1.26 0 0 0 .24.22 1.29 1.29 0 0 0 .77.25h.1a1.49 1.49 0 0 1-1 .51 2.31 2.31 0 0 1-2-.77 3.37 3.37 0 0 1-.66-3.17A3.93 3.93 0 0 1 7 3.8a4.88 4.88 0 0 1 2.88.89Zm-5.67 8.13a4.93 4.93 0 0 1-2.1-4.27 4.61 4.61 0 0 0 1.1 2.22A3.76 3.76 0 0 0 6 12h.36a2.7 2.7 0 0 0 2.4-2.08 2.2 2.2 0 0 0-.65-2 1.26 1.26 0 0 0-.24-.22l-.17-.14a1.35 1.35 0 0 0-.7-.17 1.54 1.54 0 0 1 1-.51 2.34 2.34 0 0 1 2 .78 3.36 3.36 0 0 1 .71 3.15 4 4 0 0 1-3.54 2.87 4.86 4.86 0 0 1-2.96-.9Z" id="path842" style="fill:#019aed"/></g></g></svg>