<svg viewBox="0 0 92.7 17.47" version="1.1" id="svg840" xmlns="http://www.w3.org/2000/svg">
  <defs id="defs824">
    <style id="style822">
      .cls-1{fill:#f90}
    </style>
  </defs>
  <g id="Layer_2" data-name="Layer 2">
    <g id="development">
      <path class="cls-1" d="M7.05 2.44a6.3 6.3 0 1 1-6.3 6.3 6.3 6.3 0 0 1 6.3-6.3m0-.75a7 7 0 1 0 7 7.05 7.05 7.05 0 0 0-7-7Z" id="path826"/>
      <g aria-label="HIGH COURT" transform="translate(25 12.64)" id="text832" font-weight="500" font-size="12" font-family="Semplicita-Medium,Semplicità" fill="#019aed">
        <path d="M6.888-6.96c0-.42.012-1.212.012-1.44H5.736c0 .228.012 1.02.012 1.44v1.884H1.74V-6.96c0-.42.012-1.212.012-1.44H.588c0 .228.012 1.02.012 1.44v5.52C.6-1.02.588-.228.588 0h1.164c0-.228-.012-1.02-.012-1.44v-2.58h4.008v2.58c0 .42-.012 1.212-.012 1.44H6.9c0-.228-.012-1.02-.012-1.44z" id="path1340" font-weight="500" font-size="12" font-family="Semplicita-Medium,Semplicità" fill="#019aed"/>
        <path d="M8.3045625-8.4c0 .228.012 1.02.012 1.44v5.52c0 .42-.012 1.212-.012 1.44h1.164c0-.228-.012-1.02-.012-1.44v-5.52c0-.42.012-1.212.012-1.44z" id="path1342" font-weight="500" font-size="12" font-family="Semplicita-Medium,Semplicità" fill="#019aed"/>
        <path d="M17.561062-2.664c.204 0 .336-.048.372-.072l.036.048c-.036.024-.143999.144-.228.36-.348.852-1.403999 1.512-2.531999 1.512-1.824 0-3.3-1.512-3.3-3.384 0-1.872 1.476-3.384 3.3-3.384 1.055999 0 2.003999.552 2.579999 1.404l.84-.732c-.791999-1.056-2.028-1.728-3.419999-1.728-2.448 0-4.44 1.992-4.44 4.44 0 2.448 1.992 4.44 4.44 4.44 2.135999 0 3.863999-1.596 3.863999-3.552 0-.144-.012-.276-.024-.408h-2.531999c-.420001 0-1.212-.012-1.44-.012v1.08c.228 0 1.019999-.012 1.44-.012z" id="path1344" font-weight="500" font-size="12" font-family="Semplicita-Medium,Semplicità" fill="#019aed"/>
        <path d="M26.388-6.96c0-.42.012-1.212.012-1.44h-1.164c0 .228.012 1.02.012 1.44v1.884H21.24V-6.96c0-.42.012-1.212.012-1.44h-1.164c0 .228.012 1.02.012 1.44v5.52c0 .42-.012 1.212-.012 1.44h1.164c0-.228-.012-1.02-.012-1.44v-2.58h4.008v2.58c0 .42-.012 1.212-.012 1.44H26.4c0-.228-.012-1.02-.012-1.44z" id="path1346" font-weight="500" font-size="12" font-family="Semplicita-Medium,Semplicità" fill="#019aed"/>
        <path d="M38.181938-1.98c-.648001.708-1.608001 1.164-2.676 1.164-1.824 0-3.300001-1.512-3.300001-3.384 0-1.872 1.476001-3.384 3.300001-3.384 1.007999 0 1.92.468 2.519999 1.2l.816-.744c-.816-.924-2.003999-1.512-3.335999-1.512-2.448 0-4.440001 1.992-4.440001 4.44 0 2.448 1.992001 4.44 4.440001 4.44 1.367999 0 2.591999-.552 3.444-1.44z" id="path1348" font-weight="500" font-size="12" font-family="Semplicita-Medium,Semplicità" fill="#019aed"/>
        <path d="M44.224688-8.64c-2.448 0-4.440001 1.992-4.440001 4.44 0 2.448 1.992001 4.44 4.440001 4.44 2.448 0 4.439999-1.992 4.439999-4.44 0-2.448-1.991999-4.44-4.439999-4.44zm0 1.056c1.823999 0 3.299999 1.512 3.299999 3.384 0 1.872-1.476 3.384-3.299999 3.384-1.824 0-3.300001-1.512-3.300001-3.384 0-1.872 1.476001-3.384 3.300001-3.384z" id="path1350" font-weight="500" font-size="12" font-family="Semplicita-Medium,Semplicità" fill="#019aed"/>
        <path d="M50.902002-8.4h-1.164c0 .228.012 1.02.012 1.44v4.32c0 .936.252 1.512.696 1.98.588.624 1.524.9 2.64.9 1.572 0 2.532-.528 2.904-1.032V-6.96c0-.42.012-1.212.012-1.44h-1.164c0 .228.012 1.02.012 1.44v5.712c-.24.216-.84.48-1.764.48-.732 0-1.38-.204-1.764-.612-.312-.324-.432-.816-.432-1.5v-4.08c0-.42.012-1.212.012-1.44z" id="path1352" letter-spacing="-.01em"/>
        <path d="M60.923999 0h1.248s-.396-.804-.624-1.296l-1.056-2.244c-.072-.156-.144-.264-.204-.324l.012-.024c.948-.228 1.584-1.128 1.584-2.184 0-1.284-.924-2.328-2.328-2.328h-2.496v6.96c0 .42-.012 1.212-.012 1.44h1.164c0-.228-.012-1.02-.012-1.44v-2.304h.984l1.26 2.676c.192.396.36.804.48 1.068zm-1.512-7.416c.852 0 1.332.6 1.332 1.332 0 .732-.48 1.332-1.332 1.332h-1.212v-2.664z" id="path1354"/>
        <path d="M67.538249-8.412c-.228 0-1.02.012-1.44.012h-2.124c-.42 0-1.212-.012-1.44-.012v1.08c.228 0 1.02-.012 1.44-.012h.492v5.904c0 .42-.012 1.212-.012 1.44h1.164c0-.228-.012-1.02-.012-1.44v-5.904h.492c.42 0 1.212.012 1.44.012z" id="path1356"/>
      </g>
      <path class="cls-1" id="rect834" d="M19.04 0h.75v17.47h-.75z"/>
      <path d="M7.05 2.44a6.3 6.3 0 1 0 6.29 6.3 6.31 6.31 0 0 0-6.29-6.3Zm.68 11.19V6.89l1.15.84a1.67 1.67 0 0 1 .68 1.45h-.25a1.09 1.09 0 0 0-.7.42 1.08 1.08 0 0 0 .24 1.49 1.09 1.09 0 0 0 .62.2 1.05 1.05 0 0 0 .86-.44 3 3 0 0 0-.66-4.21L7.05 4.72 4.42 6.63a3 3 0 0 0-.67 4.21 1 1 0 0 0 .49.39 1 1 0 0 0 .38.07 1.12 1.12 0 0 0 .44-.09 1.1 1.1 0 0 0 .55-.59 1.06 1.06 0 0 0 0-.82 1 1 0 0 0-1-.61 1.61 1.61 0 0 1 0-.38 1.69 1.69 0 0 1 .66-1.08l1.16-.84v6.74a4.94 4.94 0 1 1 1.36 0Z" id="path836" fill="#019aed"/>
    </g>
  </g>
</svg>
