<?xml version="1.0" encoding="UTF-8" standalone="no"?>
<svg
   viewBox="0 0 551.99412 232.42056"
   version="1.1"
   id="svg1795"
   sodipodi:docname="defense-full-color-pathtext.svg"
   inkscape:version="1.1 (c4e8f9e, 2021-05-24)"
   width="551.99408"
   height="232.42055"
   xmlns:inkscape="http://www.inkscape.org/namespaces/inkscape"
   xmlns:sodipodi="http://sodipodi.sourceforge.net/DTD/sodipodi-0.dtd"
   xmlns="http://www.w3.org/2000/svg"
   xmlns:svg="http://www.w3.org/2000/svg"
   xmlns:rdf="http://www.w3.org/1999/02/22-rdf-syntax-ns#"
   xmlns:cc="http://creativecommons.org/ns#"
   xmlns:dc="http://purl.org/dc/elements/1.1/">
  <sodipodi:namedview
     id="namedview1797"
     pagecolor="#ffffff"
     bordercolor="#111111"
     borderopacity="1"
     inkscape:pageshadow="0"
     inkscape:pageopacity="0"
     inkscape:pagecheckerboard="1"
     showgrid="false"
     inkscape:zoom="1.5596513"
     inkscape:cx="218.31803"
     inkscape:cy="126.31028"
     inkscape:current-layer="Layer_2"
     inkscape:snap-nodes="false"
     inkscape:snap-others="false"
     inkscape:snap-bbox="true"
     inkscape:bbox-paths="true"
     inkscape:bbox-nodes="true"
     inkscape:snap-bbox-edge-midpoints="true"
     inkscape:snap-bbox-midpoints="true" />
  <defs
     id="defs1713">
    <style
       id="style1711">.cls-1{font-size:12px;font-family:Semplicita-Medium, Semplicità;font-weight:500;}.cls-1,.cls-10,.cls-6{fill:#019aed;}.cls-2{letter-spacing:-0.02em;}.cls-3{letter-spacing:-0.1em;}.cls-4{letter-spacing:-0.03em;}.cls-5{letter-spacing:0em;}.cls-6{font-size:7.58px;font-family:Semplicita-Light, Semplicità;font-weight:300;}.cls-7{letter-spacing:-0.07em;}.cls-8{letter-spacing:-0.02em;}.cls-9{fill:#f90;}</style>
  </defs>
  <title
     id="title1715">mofa-header_full-color</title>
  <g
     id="Layer_2"
     data-name="Layer 2"
     transform="translate(-25.375591,-21.177492)">
    <g
       aria-label="MINISTRY OF DEFENSE"
       id="text1729"
       style="font-weight:500;font-size:60px;font-family:Semplicità;-inkscape-font-specification:'Semplicità, Medium';fill:#019aed"
       class="cls-1">
      <path
         d="m 33.955591,132.04004 -7.14,36.78 c -0.36,1.98 -1.44,7.02 -1.44,7.02 h 5.76 c 0,0 0.66,-3.84 1.02,-5.94 l 3,-16.38 c 0.42,-2.34 0.84,-4.98 0.78,-5.58 l 0.24,-0.06 c 0.18,0.78 1.2,3.66 2.16,5.82 l 10.38,23.58 10.44,-23.4 c 0.96,-2.16 2.04,-5.04 2.22,-5.82 l 0.24,0.06 c -0.06,0.6 0.12,3.36 0.54,5.7 l 3.06,16.02 c 0.36,1.98 0.66,4.02 1.02,6 h 5.76 c 0,0 -0.84,-4.38 -1.38,-7.08 l -7.38,-36.72 -11.94,26.94 c -1.26,2.88 -2.34,6 -2.4,6.66 h -0.24 c -0.06,-0.6 -0.84,-3.36 -2.34,-6.66 z"
         style="font-weight:500;font-size:60px;font-family:Semplicità;-inkscape-font-specification:'Semplicità, Medium';fill:#019aed"
         id="path917" />
      <path
         d="m 77.074029,133.84004 c 0,1.14 0.06,5.1 0.06,7.2 v 27.6 c 0,2.1 -0.06,6.06 -0.06,7.2 h 5.82 c 0,-1.14 -0.06,-5.1 -0.06,-7.2 v -27.6 c 0,-2.1 0.06,-6.06 0.06,-7.2 z"
         style="font-weight:500;font-size:60px;font-family:Semplicità;-inkscape-font-specification:'Semplicità, Medium';fill:#019aed"
         id="path919" />
      <path
         d="m 127.25653,177.52004 v -36.48 c 0,-2.1 0.06,-6.06 0.06,-7.2 h -5.82 c 0,1.14 0.06,5.1 0.06,7.2 v 19.2 c 0,2.28 0.3,3.84 0.42,4.44 l -0.18,0.12 c -1.2,-1.68 -3.06,-3.54 -4.8,-5.34 l -27.000001,-27.3 v 36.48 c 0,2.1 -0.06,6.06 -0.06,7.2 h 5.82 c 0,-1.14 -0.06,-5.1 -0.06,-7.2 v -19.2 c 0,-2.28 -0.3,-3.84 -0.42,-4.44 l 0.18,-0.12 c 1.2,1.68 3.06,3.54 4.800001,5.34 z"
         style="font-weight:500;font-size:60px;font-family:Semplicità;-inkscape-font-specification:'Semplicità, Medium';fill:#019aed"
         id="path921" />
      <path
         d="m 134.37872,133.84004 c 0,1.14 0.06,5.1 0.06,7.2 v 27.6 c 0,2.1 -0.06,6.06 -0.06,7.2 h 5.82 c 0,-1.14 -0.06,-5.1 -0.06,-7.2 v -27.6 c 0,-2.1 0.06,-6.06 0.06,-7.2 z"
         style="font-weight:500;font-size:60px;font-family:Semplicità;-inkscape-font-specification:'Semplicità, Medium';fill:#019aed"
         id="path923" />
      <path
         d="m 145.02122,168.64004 c 2.16,3.9 6.42,7.92 13.08,7.92 7.74,0 12.6,-4.74 12.6,-11.52 0,-6.72 -5.1,-10.5 -9.78,-13.74 -3.96,-2.76 -7.5,-4.92 -7.5,-8.58 0,-2.46 1.74,-4.56 5.04,-4.56 3.3,0 5.46,2.16 6.96,4.2 l 4.38,-3.3 c -2.34,-2.82 -5.76,-5.94 -11.34,-5.94 -6.36,0 -10.68,4.14 -10.68,9.84 0,6.12 5.1,9.54 9.78,12.84 3.84,2.7 7.44,5.34 7.44,9.72 0,3.3 -2.58,5.88 -6.9,5.88 -3.9,0 -6.66,-2.7 -8.22,-5.4 z"
         style="font-weight:500;font-size:60px;font-family:Semplicità;-inkscape-font-specification:'Semplicità, Medium';fill:#019aed"
         id="path925" />
      <path
         d="m 198.63778,133.78004 c -1.14,0 -5.1,0.06 -7.2,0.06 h -10.62 c -2.1,0 -6.06,-0.06 -7.2,-0.06 v 5.4 c 1.14,0 5.1,-0.06 7.2,-0.06 h 2.46 v 29.52 c 0,2.1 -0.06,6.06 -0.06,7.2 h 5.82 c 0,-1.14 -0.06,-5.1 -0.06,-7.2 v -29.52 h 2.46 c 2.1,0 6.06,0.06 7.2,0.06 z"
         style="font-weight:500;font-size:60px;font-family:Semplicità;-inkscape-font-specification:'Semplicità, Medium';fill:#019aed"
         id="path927" />
      <path
         d="m 221.85558,175.84004 h 6.24 c 0,0 -1.98,-4.02 -3.12,-6.48 l -5.28,-11.22 c -0.36,-0.78 -0.72,-1.32 -1.02,-1.62 l 0.06,-0.12 c 4.74,-1.14 7.92,-5.64 7.92,-10.92 0,-6.42 -4.62,-11.64 -11.64,-11.64 h -12.48 v 34.8 c 0,2.1 -0.06,6.06 -0.06,7.2 h 5.82 c 0,-1.14 -0.06,-5.1 -0.06,-7.2 v -11.52 h 4.92 l 6.3,13.38 c 0.96,1.98 1.8,4.02 2.4,5.34 z m -7.56,-37.08 c 4.26,0 6.66,3 6.66,6.66 0,3.66 -2.4,6.66 -6.66,6.66 h -6.06 v -13.32 z"
         style="letter-spacing:-0.02em;stroke-width:0.2"
         id="path929" />
      <path
         d="m 241.99496,175.84004 h 5.82 c 0,-1.14 -0.06,-5.1 -0.06,-7.2 v -11.22 l 9.18,-16.2 c 1.44,-2.52 2.82,-4.98 4.26,-7.38 h -6.36 c -0.84,1.5 -1.62,3 -2.52,4.56 l -5.46,9.66 c -1.02,1.86 -1.98,3.78 -1.98,4.14 h -0.24 c 0,-0.36 -0.84,-2.28 -1.92,-4.14 l -5.64,-9.6 c -0.96,-1.62 -1.74,-3.06 -2.64,-4.62 h -6.48 c 0.54,0.96 3.48,5.7 4.56,7.5 l 9.54,16.26 v 11.04 c 0,2.1 -0.06,6.06 -0.06,7.2 z"
         style="letter-spacing:-0.02em;stroke-width:0.2"
         id="path931" />
      <path
         d="m 302.68402,132.64004 c -12.24,0 -22.2,9.96 -22.2,22.2 0,12.24 9.96,22.2 22.2,22.2 12.24,0 22.2,-9.96 22.2,-22.2 0,-12.24 -9.96,-22.2 -22.2,-22.2 z m 0,5.28 c 9.12,0 16.5,7.56 16.5,16.92 0,9.36 -7.38,16.92 -16.5,16.92 -9.12,0 -16.5,-7.56 -16.5,-16.92 0,-9.36 7.38,-16.92 16.5,-16.92 z"
         style="letter-spacing:-0.02em;stroke-width:0.2"
         id="path933" />
      <path
         d="m 329.10277,168.64004 c 0,2.1 -0.06,6.06 -0.06,7.2 h 5.82 c 0,-1.14 -0.06,-5.1 -0.06,-7.2 v -13.2 h 4.62 c 2.1,0 6.06,0.06 7.2,0.06 v -5.4 c -1.14,0 -5.1,0.06 -7.2,0.06 h -4.62 v -11.16 h 7.74 c 2.1,0 6.06,0.06 7.2,0.06 v -5.28 c -1.14,0 -5.1,0.06 -7.2,0.06 h -13.44 z"
         style="letter-spacing:-0.02em;stroke-width:0.2"
         id="path935" />
      <path
         d="m 370.29652,175.84004 h 12.9 c 11.28,0 20.4,-9.42 20.4,-21 0,-11.58 -9.66,-21 -21.6,-21 h -11.7 z m 10.68,-36.84 c 9.36,0 16.92,7.08 16.92,15.84 0,8.7 -7.02,15.72 -15.66,15.72 h -6.24 v -31.56 z"
         style="letter-spacing:-0.02em;stroke-width:0.2"
         id="path937" />
      <path
         d="m 407.7684,175.84004 h 15.12 c 2.1,0 6.06,0.06 7.2,0.06 v -5.64 c -1.14,0 -5.1,0.06 -7.2,0.06 h -9.42 v -14.76 h 5.28 c 2.1,0 6.06,0.06 7.2,0.06 v -5.52 c -1.14,0 -5.1,0.06 -7.2,0.06 h -5.28 v -11.04 h 8.22 c 2.1,0 6.06,0.06 7.2,0.06 v -5.4 c -1.14,0 -5.1,0.06 -7.2,0.06 h -13.92 z"
         style="letter-spacing:-0.02em;stroke-width:0.2"
         id="path939" />
      <path
         d="m 434.5762,168.64004 c 0,2.1 -0.06,6.06 -0.06,7.2 h 5.82 c 0,-1.14 -0.06,-5.1 -0.06,-7.2 v -13.2 h 4.62 c 2.1,0 6.06,0.06 7.2,0.06 v -5.4 c -1.14,0 -5.1,0.06 -7.2,0.06 h -4.62 v -11.16 h 7.74 c 2.1,0 6.06,0.06 7.2,0.06 v -5.28 c -1.14,0 -5.1,0.06 -7.2,0.06 h -13.44 z"
         style="letter-spacing:-0.02em;stroke-width:0.2"
         id="path941" />
      <path
         d="m 458.9231,175.84004 h 15.12 c 2.1,0 6.06,0.06 7.2,0.06 v -5.64 c -1.14,0 -5.1,0.06 -7.2,0.06 h -9.42 v -14.76 h 5.28 c 2.1,0 6.06,0.06 7.2,0.06 v -5.52 c -1.14,0 -5.1,0.06 -7.2,0.06 h -5.28 v -11.04 h 8.22 c 2.1,0 6.06,0.06 7.2,0.06 v -5.4 c -1.14,0 -5.1,0.06 -7.2,0.06 h -13.92 z"
         style="letter-spacing:-0.02em;stroke-width:0.2"
         id="path943" />
      <path
         d="m 522.9909,177.52004 v -36.48 c 0,-2.1 0.06,-6.06 0.06,-7.2 h -5.82 c 0,1.14 0.06,5.1 0.06,7.2 v 19.2 c 0,2.28 0.3,3.84 0.42,4.44 l -0.18,0.12 c -1.2,-1.68 -3.06,-3.54 -4.8,-5.34 l -27,-27.3 v 36.48 c 0,2.1 -0.06,6.06 -0.06,7.2 h 5.82 c 0,-1.14 -0.06,-5.1 -0.06,-7.2 v -19.2 c 0,-2.28 -0.3,-3.84 -0.42,-4.44 l 0.18,-0.12 c 1.2,1.68 3.06,3.54 4.8,5.34 z"
         style="letter-spacing:-0.02em;stroke-width:0.2"
         id="path945" />
      <path
         d="m 525.49307,168.64004 c 2.16,3.9 6.42,7.92 13.08,7.92 7.74,0 12.6,-4.74 12.6,-11.52 0,-6.72 -5.1,-10.5 -9.78,-13.74 -3.96,-2.76 -7.5,-4.92 -7.5,-8.58 0,-2.46 1.74,-4.56 5.04,-4.56 3.3,0 5.46,2.16 6.96,4.2 l 4.38,-3.3 c -2.34,-2.82 -5.76,-5.94 -11.34,-5.94 -6.36,0 -10.68,4.14 -10.68,9.84 0,6.12 5.1,9.54 9.78,12.84 3.84,2.7 7.44,5.34 7.44,9.72 0,3.3 -2.58,5.88 -6.9,5.88 -3.9,0 -6.66,-2.7 -8.22,-5.4 z"
         style="letter-spacing:-0.02em;stroke-width:0.2"
         id="path947" />
      <path
         d="m 555.04965,175.84004 h 15.12 c 2.1,0 6.06,0.06 7.2,0.06 v -5.64 c -1.14,0 -5.1,0.06 -7.2,0.06 h -9.42 v -14.76 h 5.28 c 2.1,0 6.06,0.06 7.2,0.06 v -5.52 c -1.14,0 -5.1,0.06 -7.2,0.06 h -5.28 v -11.04 h 8.22 c 2.1,0 6.06,0.06 7.2,0.06 v -5.4 c -1.14,0 -5.1,0.06 -7.2,0.06 h -13.92 z"
         style="letter-spacing:-0.02em;stroke-width:0.2"
         id="path949" />
    </g>
    <g
       aria-label="OF THE SOUTH PACIFIC"
       id="text1737"
       style="font-weight:300;font-size:37.9px;font-family:Semplicità;-inkscape-font-specification:'Semplicità, Light';fill:#019aed"
       class="cls-6">
      <path
         d="m 137.92444,225.55204 c -7.7316,0 -14.023,6.2914 -14.023,14.023 0,7.7316 6.2914,14.023 14.023,14.023 7.7316,0 14.023,-6.2914 14.023,-14.023 0,-7.7316 -6.2914,-14.023 -14.023,-14.023 z m 0,1.6676 c 6.7841,0 12.3175,5.5334 12.3175,12.3554 0,6.822 -5.5334,12.3554 -12.3175,12.3554 -6.7841,0 -12.3175,-5.5334 -12.3175,-12.3554 0,-6.822 5.5334,-12.3554 12.3175,-12.3554 z"
         id="path970" />
      <path
         d="m 155.18967,226.31004 v 21.982 c 0,1.3265 -0.0379,3.8279 -0.0379,4.548 h 1.7813 c 0,-0.7201 -0.0379,-3.2215 -0.0379,-4.548 v -9.1718 h 3.5626 c 1.3265,0 3.8279,0.0379 4.548,0.0379 v -1.7434 c -0.7201,0 -3.2215,0.0379 -4.548,0.0379 h -3.5626 v -9.475 h 4.8891 c 1.3265,0 3.8279,0.0379 4.548,0.0379 v -1.7434 c -0.7201,0 -3.2215,0.0379 -4.548,0.0379 z"
         id="path972" />
      <path
         d="m 189.13919,226.31004 h -6.7083 c -1.3265,0 -3.8279,-0.0379 -4.548,-0.0379 v 1.7434 c 0.7201,0 3.2215,-0.0379 4.548,-0.0379 h 2.5014 v 20.3144 c 0,1.3265 -0.0379,3.8279 -0.0379,4.548 h 1.7813 c 0,-0.7201 -0.0379,-3.2215 -0.0379,-4.548 v -20.3144 h 2.5014 c 1.3265,0 3.8279,0.0379 4.548,0.0379 v -1.7434 c -0.7201,0 -3.2215,0.0379 -4.548,0.0379 z"
         id="path974" />
      <path
         d="m 196.08674,226.31004 c 0,0.7201 0.0379,3.2215 0.0379,4.548 v 17.434 c 0,1.3265 -0.0379,3.8279 -0.0379,4.548 h 1.7813 c 0,-0.7201 -0.0379,-3.2215 -0.0379,-4.548 v -9.096 h 15.918 v 9.096 c 0,1.3265 -0.0379,3.8279 -0.0379,4.548 h 1.7813 c 0,-0.7201 -0.0379,-3.2215 -0.0379,-4.548 v -17.434 c 0,-1.3265 0.0379,-3.8279 0.0379,-4.548 h -1.7813 c 0,0.7201 0.0379,3.2215 0.0379,4.548 v 6.6704 h -15.918 v -6.6704 c 0,-1.3265 0.0379,-3.8279 0.0379,-4.548 z"
         id="path976" />
      <path
         d="m 219.21995,226.31004 v 26.53 h 7.6558 c 1.3265,0 3.8279,0.0379 4.548,0.0379 v -1.7434 c -0.7201,0 -3.2215,0.0379 -4.548,0.0379 h -5.9503 v -12.0522 h 3.2215 c 1.3265,0 3.8279,0.0379 4.548,0.0379 v -1.7434 c -0.7201,0 -3.2215,0.0379 -4.548,0.0379 h -3.2215 v -9.475 h 5.1923 c 1.3265,0 3.8279,0.0379 4.548,0.0379 v -1.7434 c -0.7201,0 -3.2215,0.0379 -4.548,0.0379 z"
         id="path978" />
      <path
         d="m 257.27569,228.92514 c -1.4023,-1.6676 -3.1836,-3.0699 -5.9124,-3.0699 -3.411,0 -6.064,2.5014 -6.064,5.6092 0,3.5247 2.4256,5.3439 5.7987,7.7695 3.2215,2.3119 5.685,4.0174 5.685,7.4663 0,2.8804 -2.4635,4.927 -5.4955,4.927 -2.7288,0 -4.6617,-1.516 -6.064,-3.411 l -1.4023,1.0233 c 1.6676,2.274 4.1311,4.0553 7.4663,4.0553 4.0174,0 7.201,-2.7288 7.201,-6.5946 0,-4.3206 -2.7288,-6.2156 -6.3293,-8.7928 -2.9562,-2.1224 -5.1544,-3.7521 -5.1544,-6.443 0,-2.1982 1.9329,-3.9416 4.3585,-3.9416 2.0466,0 3.3731,1.1749 4.5101,2.5393 z"
         id="path980" />
      <path
         d="m 275.75609,225.55204 c -7.7316,0 -14.023,6.2914 -14.023,14.023 0,7.7316 6.2914,14.023 14.023,14.023 7.7316,0 14.023,-6.2914 14.023,-14.023 0,-7.7316 -6.2914,-14.023 -14.023,-14.023 z m 0,1.6676 c 6.7841,0 12.3175,5.5334 12.3175,12.3554 0,6.822 -5.5334,12.3554 -12.3175,12.3554 -6.7841,0 -12.3175,-5.5334 -12.3175,-12.3554 0,-6.822 5.5334,-12.3554 12.3175,-12.3554 z"
         id="path982" />
      <path
         d="m 293.17292,226.31004 c 0,0.7201 0.0379,3.2215 0.0379,4.548 v 13.1892 c 0,2.653 0.5306,4.8133 1.895,6.3672 1.5918,1.8192 3.9795,2.8804 7.9211,2.8804 4.9649,0 7.58,-1.9708 8.6412,-3.5626 v -18.8742 c 0,-1.3265 0.0379,-3.8279 0.0379,-4.548 h -1.7813 c 0,0.7201 0.0379,3.2215 0.0379,4.548 v 18.3815 c -1.0233,1.137 -3.1078,2.3877 -6.9357,2.3877 -3.2973,0 -5.306,-0.8338 -6.5946,-2.274 -1.0991,-1.2128 -1.516,-3.1457 -1.516,-5.1165 v -13.3787 c 0,-1.3265 0.0379,-3.8279 0.0379,-4.548 z"
         id="path984" />
      <path
         d="m 325.56439,226.31004 h -6.7083 c -1.3265,0 -3.8279,-0.0379 -4.548,-0.0379 v 1.7434 c 0.7201,0 3.2215,-0.0379 4.548,-0.0379 h 2.5014 v 20.3144 c 0,1.3265 -0.0379,3.8279 -0.0379,4.548 h 1.7813 c 0,-0.7201 -0.0379,-3.2215 -0.0379,-4.548 v -20.3144 h 2.5014 c 1.3265,0 3.8279,0.0379 4.548,0.0379 v -1.7434 c -0.7201,0 -3.2215,0.0379 -4.548,0.0379 z"
         id="path986" />
      <path
         d="m 332.51194,226.31004 c 0,0.7201 0.0379,3.2215 0.0379,4.548 v 17.434 c 0,1.3265 -0.0379,3.8279 -0.0379,4.548 h 1.7813 c 0,-0.7201 -0.0379,-3.2215 -0.0379,-4.548 v -9.096 h 15.918 v 9.096 c 0,1.3265 -0.0379,3.8279 -0.0379,4.548 h 1.7813 c 0,-0.7201 -0.0379,-3.2215 -0.0379,-4.548 v -17.434 c 0,-1.3265 0.0379,-3.8279 0.0379,-4.548 h -1.7813 c 0,0.7201 0.0379,3.2215 0.0379,4.548 v 6.6704 h -15.918 v -6.6704 c 0,-1.3265 0.0379,-3.8279 0.0379,-4.548 z"
         id="path988" />
      <path
         d="m 365.49027,226.31004 v 21.982 c 0,1.3265 -0.0379,3.8279 -0.0379,4.548 h 1.7813 c 0,-0.7201 -0.0379,-3.2215 -0.0379,-4.548 v -8.1106 h 3.3731 c 5.0407,0 7.8074,-3.1457 7.8074,-7.0494 0,-3.7521 -2.6151,-6.822 -7.201,-6.822 z m 1.7055,1.6676 h 4.3585 c 3.2594,0 5.1165,2.3119 5.1165,5.1544 0,2.9562 -2.1224,5.3818 -5.7229,5.3818 h -3.7521 z"
         id="path990" />
      <path
         d="m 388.21547,224.86984 -9.2855,23.7254 c -0.6822,1.7434 -1.7055,4.2448 -1.7055,4.2448 h 1.9329 c 0,0 0.6822,-1.8571 1.3644,-3.6005 l 0.379,-1.0233 h 14.9326 l 0.4548,1.0612 c 0.6443,1.5539 1.4023,3.5626 1.4023,3.5626 h 1.9329 c 0,0 -1.2128,-2.8804 -1.7434,-4.2069 z m 0.0758,4.2827 c 0.0379,0.4548 0.2653,1.2128 0.9475,2.8425 l 5.5713,13.644 c 0.2274,0.5685 0.4927,0.9096 0.6064,0.9854 l -0.0758,0.1516 c -0.1137,-0.0758 -0.6064,-0.2274 -1.3265,-0.2274 h -11.3321 c -0.6822,0 -1.2507,0.1516 -1.3265,0.2274 l -0.0758,-0.1516 c 0.1137,-0.0758 0.4548,-0.4927 0.6443,-0.9854 l 5.306,-13.644 c 0.6443,-1.6297 0.8717,-2.3877 0.9096,-2.8425 z"
         id="path992" />
      <path
         d="m 424.06295,229.64524 c -2.4256,-2.5393 -5.7987,-4.0932 -9.5129,-4.0932 -7.7316,0 -14.023,6.2914 -14.023,14.023 0,7.7316 6.2914,14.023 14.023,14.023 3.7521,0 7.201,-1.5539 9.6645,-4.0932 l -1.2507,-1.2128 c -2.1603,2.2361 -5.1165,3.6384 -8.4138,3.6384 -6.7841,0 -12.3175,-5.5334 -12.3175,-12.3554 0,-6.822 5.5334,-12.3554 12.3175,-12.3554 3.2215,0 6.1019,1.4023 8.2243,3.6384 z"
         id="path994" />
      <path
         d="m 428.16798,226.31004 c 0,0.7201 0.0379,3.2215 0.0379,4.548 v 17.434 c 0,1.3265 -0.0379,3.8279 -0.0379,4.548 h 1.7813 c 0,-0.7201 -0.0379,-3.2215 -0.0379,-4.548 v -17.434 c 0,-1.3265 0.0379,-3.8279 0.0379,-4.548 z"
         id="path996" />
      <path
         d="m 434.48011,226.31004 v 21.982 c 0,1.3265 -0.0379,3.8279 -0.0379,4.548 h 1.7813 c 0,-0.7201 -0.0379,-3.2215 -0.0379,-4.548 v -9.1718 h 3.5626 c 1.3265,0 3.8279,0.0379 4.548,0.0379 v -1.7434 c -0.7201,0 -3.2215,0.0379 -4.548,0.0379 h -3.5626 v -9.475 h 4.8891 c 1.3265,0 3.8279,0.0379 4.548,0.0379 v -1.7434 c -0.7201,0 -3.2215,0.0379 -4.548,0.0379 z"
         id="path998" />
      <path
         d="m 449.4127,226.31004 c 0,0.7201 0.0379,3.2215 0.0379,4.548 v 17.434 c 0,1.3265 -0.0379,3.8279 -0.0379,4.548 h 1.7813 c 0,-0.7201 -0.0379,-3.2215 -0.0379,-4.548 v -17.434 c 0,-1.3265 0.0379,-3.8279 0.0379,-4.548 z"
         id="path1000" />
      <path
         d="m 478.69223,229.64524 c -2.4256,-2.5393 -5.7987,-4.0932 -9.5129,-4.0932 -7.7316,0 -14.023,6.2914 -14.023,14.023 0,7.7316 6.2914,14.023 14.023,14.023 3.7521,0 7.201,-1.5539 9.6645,-4.0932 l -1.2507,-1.2128 c -2.1603,2.2361 -5.1165,3.6384 -8.4138,3.6384 -6.7841,0 -12.3175,-5.5334 -12.3175,-12.3554 0,-6.822 5.5334,-12.3554 12.3175,-12.3554 3.2215,0 6.1019,1.4023 8.2243,3.6384 z"
         id="path1002" />
    </g>
    <g
       id="g1102"
       transform="matrix(6.343558,0,0,6.343558,-282.01738,-85.397448)"
       style="stroke-width:0.15764">
      <path
         class="cls-1"
         d="m 91.965038,17.550499 a 6.3,6.3 0 1 1 -6.3,6.3 6.3,6.3 0 0 1 6.3,-6.3 m 0,-0.75 a 7,7 0 1 0 7,7.05 7.05,7.05 0 0 0 -7,-7 z"
         id="path826"
         style="fill:#ff9900;stroke-width:0.15764" />
      <path
         class="cls-4"
         d="m 96.445038,28.260499 a 6.29,6.29 0 1 0 -10.78,-4.41 6.21,6.21 0 0 0 1.82,4.41 v 0 0 a 6.3,6.3 0 0 0 8.92,0 v 0 z m -4.48,-9.33 a 4.91,4.91 0 0 1 3.49,8.37 0.5,0.5 0 0 1 -0.69,0 0.47,0.47 0 0 1 -0.15,-0.35 v -3.16 a 1.06,1.06 0 0 0 0.5,0.13 1.1,1.1 0 1 0 0,-2.2 1.88,1.88 0 0 0 -1.87,1.88 v 3.34 a 1.86,1.86 0 0 0 0.55,1.33 l 0.11,0.09 a 4.38,4.38 0 0 1 -1.25,0.35 v -6.67 a 1.38,1.38 0 1 0 -1.38,0 v 6.67 a 4.54,4.54 0 0 1 -1.26,-0.35 l 0.12,-0.09 a 1.9,1.9 0 0 0 0.55,-1.33 v -3.34 a 1.88,1.88 0 0 0 -1.88,-1.88 1.1,1.1 0 1 0 0,2.2 1.06,1.06 0 0 0 0.5,-0.13 v 3.15 a 0.5,0.5 0 0 1 -0.84,0.36 4.91,4.91 0 0 1 3.5,-8.37 z"
         id="path836"
         style="fill:#019aed;stroke-width:0.15764" />
    </g>
    <rect
       class="cls-9"
       x="103.44765"
       y="199.24004"
       width="395.80002"
       height="3.75"
       id="rect1739"
       style="stroke-width:1" />
  </g>
  <metadata
     id="metadata1799">
    <rdf:RDF>
      <cc:Work
         rdf:about="">
        <dc:title>mofa-header_full-color</dc:title>
      </cc:Work>
    </rdf:RDF>
  </metadata>
</svg>
