<svg xmlns="http://www.w3.org/2000/svg" xmlns:xlink="http://www.w3.org/1999/xlink" width="551.994" height="232.421" xmlns:v="https://vecta.io/nano" viewBox="0 0 551.994 232.421"><style>.C{letter-spacing:-0.03em}</style><g fill="#019aed"><path d="M8.58 110.863l-7.14 36.78-1.44 7.02h5.76l1.02-5.94 3-16.38.78-5.58.24-.06c.18.78 1.2 3.66 2.16 5.82l10.38 23.58 10.44-23.4c.96-2.16 2.04-5.04 2.22-5.82l.24.06c-.06.6.12 3.36.54 5.7l3.06 16.02 1.02 6h5.76l-1.38-7.08-7.38-36.72-11.94 26.94c-1.26 2.88-2.34 6-2.4 6.66h-.24c-.06-.6-.84-3.36-2.34-6.66zm43.118 1.8l.06 7.2v27.6l-.06 7.2h5.82l-.06-7.2v-27.6l.06-7.2z"/><use xlink:href="#B"/><path d="M109.003 112.663l.06 7.2v27.6l-.06 7.2h5.82l-.06-7.2v-27.6l.06-7.2z"/><use xlink:href="#C"/><path d="M173.262 112.603l-7.2.06h-10.62c-2.1 0-6.06-.06-7.2-.06v5.4l7.2-.06h2.46v29.52l-.06 7.2h5.82l-.06-7.2v-29.52h2.46l7.2.06zm23.218 42.06h6.24l-3.12-6.48-5.28-11.22c-.36-.78-.72-1.32-1.02-1.62l.06-.12c4.74-1.14 7.92-5.64 7.92-10.92 0-6.42-4.62-11.64-11.64-11.64h-12.48v34.8l-.06 7.2h5.82l-.06-7.2v-11.52h4.92l6.3 13.38c.96 1.98 1.8 4.02 2.4 5.34zm-7.56-37.08c4.26 0 6.66 3 6.66 6.66s-2.4 6.66-6.66 6.66h-6.06v-13.32zm27.699 37.08h5.82l-.06-7.2v-11.22l9.18-16.2 4.26-7.38h-6.36l-2.52 4.56-5.46 9.66c-1.02 1.86-1.98 3.78-1.98 4.14h-.24c0-.36-.84-2.28-1.92-4.14l-5.64-9.6-2.64-4.62h-6.48l4.56 7.5 9.54 16.26v11.04l-.06 7.2zm60.689-43.2c-12.24 0-22.2 9.96-22.2 22.2s9.96 22.2 22.2 22.2 22.2-9.96 22.2-22.2-9.96-22.2-22.2-22.2zm0 5.28c9.12 0 16.5 7.56 16.5 16.92s-7.38 16.92-16.5 16.92-16.5-7.56-16.5-16.92 7.38-16.92 16.5-16.92zm26.419 30.72l-.06 7.2h5.82l-.06-7.2v-13.2h4.62l7.2.06v-5.4l-7.2.06h-4.62v-11.16h7.74l7.2.06v-5.28l-7.2.06h-13.44zm41.194 7.2h12.9c11.28 0 20.4-9.42 20.4-21s-9.66-21-21.6-21h-11.7zm10.68-36.84c9.36 0 16.92 7.08 16.92 15.84 0 8.7-7.02 15.72-15.66 15.72h-6.24v-31.56z"/><use xlink:href="#D"/><path d="M409.2 147.463l-.06 7.2h5.82l-.06-7.2v-13.2h4.62l7.2.06v-5.4l-7.2.06h-4.62v-11.16h7.74l7.2.06v-5.28l-7.2.06H409.2z"/><use xlink:href="#D" x="51.155"/><use xlink:href="#B" x="395.734"/><use xlink:href="#C" x="380.472"/><use xlink:href="#D" x="147.282"/><path d="M112.548 204.375c-7.732 0-14.023 6.291-14.023 14.023s6.291 14.023 14.023 14.023 14.023-6.291 14.023-14.023-6.291-14.023-14.023-14.023zm0 1.668c6.784 0 12.317 5.533 12.317 12.355s-5.533 12.355-12.317 12.355-12.317-5.533-12.317-12.355 5.533-12.355 12.317-12.355z"/><use xlink:href="#E"/><use xlink:href="#F"/><use xlink:href="#G"/><path d="M193.844 205.133v26.53h7.656l4.548.038v-1.743l-4.548.038h-5.95v-12.052h3.221l4.548.038v-1.743l-4.548.038h-3.221v-9.475h5.192l4.548.038v-1.743l-4.548.038zm38.056 2.615c-1.402-1.668-3.184-3.07-5.912-3.07-3.411 0-6.064 2.501-6.064 5.609 0 3.525 2.426 5.344 5.799 7.769 3.221 2.312 5.685 4.017 5.685 7.466 0 2.88-2.464 4.927-5.495 4.927-2.729 0-4.662-1.516-6.064-3.411l-1.402 1.023c1.668 2.274 4.131 4.055 7.466 4.055 4.017 0 7.201-2.729 7.201-6.595 0-4.321-2.729-6.216-6.329-8.793-2.956-2.122-5.154-3.752-5.154-6.443 0-2.198 1.933-3.942 4.358-3.942 2.047 0 3.373 1.175 4.51 2.539zm18.48-3.373c-7.732 0-14.023 6.291-14.023 14.023s6.291 14.023 14.023 14.023 14.023-6.291 14.023-14.023-6.291-14.023-14.023-14.023zm0 1.668c6.784 0 12.318 5.533 12.318 12.355s-5.533 12.355-12.318 12.355-12.317-5.533-12.317-12.355 5.533-12.355 12.317-12.355zm17.417-.91l.038 4.548v13.189c0 2.653.531 4.813 1.895 6.367 1.592 1.819 3.979 2.88 7.921 2.88 4.965 0 7.58-1.971 8.641-3.563V209.68l.038-4.548h-1.781l.038 4.548v18.381c-1.023 1.137-3.108 2.388-6.936 2.388-3.297 0-5.306-.834-6.595-2.274-1.099-1.213-1.516-3.146-1.516-5.117v-13.379l.038-4.548z"/><use xlink:href="#F" x="136.425"/><use xlink:href="#G" x="136.425"/><path d="M340.114 205.133v21.982l-.038 4.548h1.781l-.038-4.548v-8.111h3.373c5.041 0 7.807-3.146 7.807-7.049 0-3.752-2.615-6.822-7.201-6.822zm1.705 1.668h4.358c3.259 0 5.116 2.312 5.116 5.154 0 2.956-2.122 5.382-5.723 5.382h-3.752zm21.02-3.108l-9.286 23.725-1.705 4.245h1.933l1.364-3.601.379-1.023h14.933l.455 1.061 1.402 3.563h1.933l-1.743-4.207zm.076 4.283c.038.455.265 1.213.947 2.843l5.571 13.644c.227.569.493.91.606.985l-.076.152c-.114-.076-.606-.227-1.327-.227h-11.332c-.682 0-1.251.152-1.327.227l-.076-.152c.114-.076.455-.493.644-.985l5.306-13.644c.644-1.63.872-2.388.91-2.843z"/><use xlink:href="#H"/><path d="M402.792 205.133l.038 4.548v17.434l-.038 4.548h1.781l-.038-4.548v-17.434l.038-4.548z"/><use xlink:href="#E" x="279.29"/><path d="M424.037 205.133l.038 4.548v17.434l-.038 4.548h1.781l-.038-4.548v-17.434l.038-4.548z"/><use xlink:href="#H" x="54.629"/></g><path d="M275.996 4.759c22.072 0 39.965 17.893 39.965 39.965s-17.893 39.965-39.965 39.965-39.965-17.893-39.965-39.965 17.893-39.965 39.965-39.965m0-4.758c-24.483.001-44.346 19.817-44.404 44.3s19.711 44.393 44.194 44.51 44.44-19.605 44.615-44.088C320.228 20.271 300.448.491 275.996.318z" fill="#f90"/><path class="C" d="M304.415 72.699c12.612-12.855 15.049-32.564 5.95-48.105s-27.48-23.06-44.863-18.353-29.457 20.474-29.472 38.482c-.03 10.49 4.126 20.559 11.545 27.975h0 0c7.498 7.515 17.677 11.739 28.292 11.739s20.795-4.223 28.292-11.739h0zm-28.419-59.186a31.15 31.15 0 0 1 22.139 53.096 3.17 3.17 0 0 1-4.377 0 2.98 2.98 0 0 1-.952-2.22V44.343c.973.532 2.063.816 3.172.825a6.98 6.98 0 0 0 6.043-10.467 6.98 6.98 0 0 0-6.043-3.489 11.93 11.93 0 0 0-11.863 11.926v21.188a11.8 11.8 0 0 0 3.489 8.437l.698.571c-2.518 1.13-5.191 1.878-7.93 2.22V33.242c3.431-1.981 5.104-6.02 4.079-9.847s-4.494-6.488-8.456-6.488-7.43 2.661-8.456 6.488.647 7.866 4.079 9.847v42.312a28.8 28.8 0 0 1-7.993-2.22l.761-.571c2.224-2.246 3.477-5.276 3.489-8.437V43.138a11.93 11.93 0 0 0-11.926-11.926 6.98 6.98 0 0 0-6.043 10.467 6.98 6.98 0 0 0 6.043 3.489c1.109-.009 2.199-.292 3.172-.825v19.982a3.17 3.17 0 0 1-5.329 2.284 31.15 31.15 0 0 1 22.203-53.096z" fill="#019aed"/><path d="M78.072 178.063h395.8v3.75h-395.8z" fill="#f90"/><defs ><path id="B" d="M101.881 156.343v-36.48l.06-7.2h-5.82l.06 7.2v19.2c0 2.28.3 3.84.42 4.44l-.18.12c-1.2-1.68-3.06-3.54-4.8-5.34l-27-27.3v36.48l-.06 7.2h5.82l-.06-7.2v-19.2c0-2.28-.3-3.84-.42-4.44l.18-.12c1.2 1.68 3.06 3.54 4.8 5.34z"/><path id="C" d="M119.645 147.463c2.16 3.9 6.42 7.92 13.08 7.92 7.74 0 12.6-4.74 12.6-11.52 0-6.72-5.1-10.5-9.78-13.74-3.96-2.76-7.5-4.92-7.5-8.58 0-2.46 1.74-4.56 5.04-4.56s5.46 2.16 6.96 4.2l4.38-3.3c-2.34-2.82-5.76-5.94-11.34-5.94-6.36 0-10.68 4.14-10.68 9.84 0 6.12 5.1 9.54 9.78 12.84 3.84 2.7 7.44 5.34 7.44 9.72 0 3.3-2.58 5.88-6.9 5.88-3.9 0-6.66-2.7-8.22-5.4z"/><path id="D" d="M382.392 154.663h15.12l7.2.06v-5.64l-7.2.06h-9.42v-14.76h5.28l7.2.06v-5.52l-7.2.06h-5.28v-11.04h8.22l7.2.06v-5.4l-7.2.06h-13.92z"/><path id="E" d="M129.814 205.133v21.982l-.038 4.548h1.781l-.038-4.548v-9.172h3.563l4.548.038v-1.743l-4.548.038h-3.563v-9.475h4.889l4.548.038v-1.743l-4.548.038z"/><path id="F" d="M163.763 205.133h-6.708c-1.327 0-3.828-.038-4.548-.038v1.743l4.548-.038h2.501v20.314l-.038 4.548h1.781l-.038-4.548v-20.314h2.501l4.548.038v-1.743l-4.548.038z"/><path id="G" d="M170.711 205.133l.038 4.548v17.434l-.038 4.548h1.781l-.038-4.548v-9.096h15.918v9.096l-.038 4.548h1.781l-.038-4.548v-17.434l.038-4.548h-1.781l.038 4.548v6.67h-15.918v-6.67l.038-4.548z"/><path id="H" d="M398.687 208.468c-2.426-2.539-5.799-4.093-9.513-4.093-7.732 0-14.023 6.291-14.023 14.023s6.291 14.023 14.023 14.023c3.752 0 7.201-1.554 9.664-4.093l-1.251-1.213c-2.16 2.236-5.116 3.638-8.414 3.638-6.784 0-12.317-5.533-12.317-12.355s5.533-12.355 12.317-12.355c3.221 0 6.102 1.402 8.224 3.638z"/></defs></svg>