<svg viewBox="0 0 551.99412 232.42056" version="1.1" id="svg1795" width="551.99408" height="232.42055" xmlns="http://www.w3.org/2000/svg"><defs id="defs1713"><style id="style1711">.cls-1{font-size:12px;font-family:Semplicita-Medium,Semplicità;font-weight:500;fill:#019aed}</style></defs><g id="Layer_2" data-name="Layer 2" transform="translate(-25.375591 -21.177492)"><text class="cls-1" id="text1729" y="175.84004" x="24.535591" style="font-style:normal;font-variant:normal;font-weight:500;font-stretch:normal;font-size:60px;font-family:Semplicità;-inkscape-font-specification:'Semplicità, Medium';font-variant-ligatures:normal;font-variant-caps:normal;font-variant-numeric:normal;font-variant-east-asian:normal;fill:#019aed;stroke-width:1">MINIST<tspan x="199.53558" y="175.84004" id="tspan1717" style="font-style:normal;font-variant:normal;font-weight:500;font-stretch:normal;font-size:60px;font-family:Semplicità;-inkscape-font-specification:'Semplicità, Medium';font-variant-ligatures:normal;font-variant-caps:normal;font-variant-numeric:normal;font-variant-east-asian:normal;stroke-width:.2;letter-spacing:-.02em">RY OF DEFENSE</tspan></text><text id="text1737" x="122.57494" y="252.84004" style="font-style:normal;font-variant:normal;font-weight:300;font-stretch:normal;font-size:37.9px;font-family:Semplicità;-inkscape-font-specification:'Semplicità, Light';font-variant-ligatures:normal;font-variant-caps:normal;font-variant-numeric:normal;font-variant-east-asian:normal;fill:#019aed;stroke-width:1"><tspan id="tspan7648" x="122.57494" y="252.84004" style="stroke-width:1">OF THE SOUTH PACIFIC</tspan></text><g id="g1102" transform="matrix(6.34356 0 0 6.34356 -282.01738 -85.397448)" style="stroke-width:.15764"><path class="cls-1" d="M91.965038 17.550499a6.3 6.3 0 1 1-6.3 6.3 6.3 6.3 0 0 1 6.3-6.3m0-.75a7 7 0 1 0 7 7.05 7.05 7.05 0 0 0-7-7z" id="path826" style="fill:#f90;stroke-width:.15764"/><path d="M96.445038 28.260499a6.29 6.29 0 1 0-10.78-4.41 6.21 6.21 0 0 0 1.82 4.41 6.3 6.3 0 0 0 8.92 0zm-4.48-9.33a4.91 4.91 0 0 1 3.49 8.37.5.5 0 0 1-.69 0 .47.47 0 0 1-.15-.35v-3.16a1.06 1.06 0 0 0 .5.13 1.1 1.1 0 1 0 0-2.2 1.88 1.88 0 0 0-1.87 1.88v3.34a1.86 1.86 0 0 0 .55 1.33l.11.09a4.38 4.38 0 0 1-1.25.35v-6.67a1.38 1.38 0 1 0-1.38 0v6.67a4.54 4.54 0 0 1-1.26-.35l.12-.09a1.9 1.9 0 0 0 .55-1.33v-3.34a1.88 1.88 0 0 0-1.88-1.88 1.1 1.1 0 1 0 0 2.2 1.06 1.06 0 0 0 .5-.13v3.15a.5.5 0 0 1-.84.36 4.91 4.91 0 0 1 3.5-8.37z" id="path836" style="fill:#019aed;stroke-width:.15764;letter-spacing:-.03em"/></g><path id="rect1739" style="stroke-width:1;fill:#f90" d="M103.44765 199.24004h395.80002v3.75H103.44765z"/></g></svg>