<?xml version="1.0" encoding="UTF-8" standalone="no"?>
<svg
   viewBox="0 0 141.99 17.47"
   version="1.1"
   id="svg25"
   sodipodi:docname="defence-line-white.svg"
   inkscape:version="1.1 (c4e8f9e, 2021-05-24)"
   xmlns:inkscape="http://www.inkscape.org/namespaces/inkscape"
   xmlns:sodipodi="http://sodipodi.sourceforge.net/DTD/sodipodi-0.dtd"
   xmlns="http://www.w3.org/2000/svg"
   xmlns:svg="http://www.w3.org/2000/svg">
  <sodipodi:namedview
     id="namedview27"
     pagecolor="#ffffff"
     bordercolor="#111111"
     borderopacity="1"
     inkscape:pageshadow="0"
     inkscape:pageopacity="0"
     inkscape:pagecheckerboard="1"
     showgrid="false"
     inkscape:zoom="20.537913"
     inkscape:cx="20.036116"
     inkscape:cy="12.269991"
     inkscape:current-layer="svg25" />
  <defs
     id="defs9">
    <style
       id="style7">.cls-1{fill:#f90;}.cls-2{font-size:12px;font-family:Semplicita-Medium, Semplicità;font-weight:500;}.cls-2,.cls-4{fill:#019aed;}.cls-3{letter-spacing:-0.02em;}</style>
  </defs>
  <path
     class="cls-1"
     d="m 7.05,2.44 a 6.3,6.3 0 1 1 -6.3,6.3 6.3,6.3 0 0 1 6.3,-6.3 m 0,-0.75 a 7,7 0 1 0 7,7.05 7.05,7.05 0 0 0 -7,-7 z"
     id="path11"
     style="fill:#109aed;fill-opacity:1" />
  <text
     class="cls-2"
     id="text17"
     x="25"
     y="12.64"
     style="fill:#ffffff;fill-opacity:1">MINIST<tspan
   class="cls-3"
   x="60"
   y="12.64"
   id="tspan13"
   style="fill:#ffffff;fill-opacity:1">R</tspan><tspan
   x="65.68"
   y="12.64"
   id="tspan15"
   style="fill:#ffffff;fill-opacity:1">Y OF DEFENCE</tspan></text>
  <rect
     class="cls-1"
     x="19.040001"
     width="0.75"
     height="17.469999"
     id="rect19"
     y="0"
     style="fill:#109aed;fill-opacity:1" />
  <path
     class="cls-4"
     d="M 11.53,13.15 A 6.29,6.29 0 1 0 0.75,8.74 6.21,6.21 0 0 0 2.57,13.15 v 0 0 a 6.3,6.3 0 0 0 8.92,0 v 0 z M 7.05,3.82 a 4.91,4.91 0 0 1 3.49,8.37 0.5,0.5 0 0 1 -0.69,0 A 0.47,0.47 0 0 1 9.7,11.84 V 8.68 a 1.06,1.06 0 0 0 0.5,0.13 1.1,1.1 0 1 0 0,-2.2 1.88,1.88 0 0 0 -1.87,1.88 v 3.34 a 1.86,1.86 0 0 0 0.55,1.33 l 0.11,0.09 A 4.38,4.38 0 0 1 7.74,13.6 V 6.93 a 1.38,1.38 0 1 0 -1.38,0 V 13.6 A 4.54,4.54 0 0 1 5.1,13.25 L 5.22,13.16 A 1.9,1.9 0 0 0 5.77,11.83 V 8.49 a 1.88,1.88 0 0 0 -1.88,-1.88 1.1,1.1 0 1 0 0,2.2 1.06,1.06 0 0 0 0.5,-0.13 v 3.15 a 0.5,0.5 0 0 1 -0.84,0.36 4.91,4.91 0 0 1 3.5,-8.37 z"
     id="path21"
     style="fill:#ffffff;fill-opacity:1" />
</svg>
