<?xml version="1.0" encoding="UTF-8" standalone="no"?>
<svg
   viewBox="0 0 1384.0476 174.7"
   version="1.1"
   id="svg25"
   sodipodi:docname="defense-line-white-blue-pathtext.svg"
   inkscape:version="1.1 (c4e8f9e, 2021-05-24)"
   width="1384.0476"
   height="174.7"
   xmlns:inkscape="http://www.inkscape.org/namespaces/inkscape"
   xmlns:sodipodi="http://sodipodi.sourceforge.net/DTD/sodipodi-0.dtd"
   xmlns="http://www.w3.org/2000/svg"
   xmlns:svg="http://www.w3.org/2000/svg">
  <sodipodi:namedview
     id="namedview27"
     pagecolor="#ffffff"
     bordercolor="#111111"
     borderopacity="1"
     inkscape:pageshadow="0"
     inkscape:pageopacity="0"
     inkscape:pagecheckerboard="1"
     showgrid="false"
     inkscape:zoom="0.65715397"
     inkscape:cx="458.79659"
     inkscape:cy="7.608567"
     inkscape:current-layer="g918"
     fit-margin-top="0"
     fit-margin-left="0"
     fit-margin-right="0"
     fit-margin-bottom="0" />
  <defs
     id="defs9">
    <style
       id="style7">.cls-1{fill:#f90;}.cls-2{font-size:12px;font-family:Semplicita-Medium, Semplicità;font-weight:500;}.cls-2,.cls-4{fill:#019aed;}.cls-3{letter-spacing:-0.02em;}</style>
  </defs>
  <g
     id="g918"
     transform="matrix(10,0,0,10,4.2627748e-6,0)"
     style="stroke-width:0.1">
    <path
       class="cls-1"
       d="M 6.9998214,2.44 A 6.3,6.3 0 1 1 0.69982143,8.74 6.3,6.3 0 0 1 6.9998214,2.44 m 0,-0.75 a 7,7 0 1 0 6.9999996,7.05 7.05,7.05 0 0 0 -6.9999996,-7 z"
       id="path11"
       style="fill:#109aed;fill-opacity:1;stroke-width:0.1" />
    <g
       aria-label="MINISTRY OF DEFENSE"
       id="text17"
       style="font-weight:500;font-size:12px;font-family:Semplicita-Medium, Semplicità;fill:#ffffff"
       class="cls-2">
      <path
         d="m 26.833821,3.8800003 -1.428,7.3559997 c -0.072,0.396 -0.288,1.404 -0.288,1.404 h 1.152 c 0,0 0.132,-0.768 0.204,-1.188 l 0.6,-3.2759997 c 0.084,-0.468 0.168,-0.996 0.156,-1.116 l 0.048,-0.012 c 0.036,0.156 0.24,0.732 0.432,1.164 l 2.076,4.7159997 2.088,-4.6799997 c 0.192,-0.432 0.408,-1.008 0.444,-1.164 l 0.048,0.012 c -0.012,0.12 0.024,0.672 0.108,1.14 l 0.612,3.2039997 c 0.072,0.396 0.132,0.804 0.204,1.2 h 1.152 c 0,0 -0.168,-0.876 -0.276,-1.416 l -1.476,-7.3439997 -2.388,5.388 c -0.252,0.576 -0.468,1.1999997 -0.48,1.3319997 h -0.048 c -0.012,-0.12 -0.168,-0.6719997 -0.468,-1.3319997 z"
         style="font-weight:500;font-size:12px;font-family:Semplicita-Medium, Semplicità;fill:#ffffff"
         id="path913" />
      <path
         d="m 35.457509,4.2400003 c 0,0.228 0.012,1.02 0.012,1.44 V 11.2 c 0,0.42 -0.012,1.212 -0.012,1.44 h 1.164 c 0,-0.228 -0.012,-1.02 -0.012,-1.44 V 5.6800003 c 0,-0.42 0.012,-1.212 0.012,-1.44 z"
         style="font-weight:500;font-size:12px;font-family:Semplicita-Medium, Semplicità;fill:#ffffff"
         id="path915" />
      <path
         d="M 45.494009,12.976 V 5.6800003 c 0,-0.42 0.012,-1.212 0.012,-1.44 h -1.164 c 0,0.228 0.012,1.02 0.012,1.44 v 3.84 c 0,0.456 0.06,0.7679997 0.084,0.8879997 l -0.036,0.024 c -0.24,-0.336 -0.612,-0.7079997 -0.96,-1.0679997 l -5.4,-5.46 V 11.2 c 0,0.42 -0.012,1.212 -0.012,1.44 h 1.164 c 0,-0.228 -0.012,-1.02 -0.012,-1.44 V 7.3600003 c 0,-0.456 -0.06,-0.768 -0.084,-0.888 l 0.036,-0.024 c 0.24,0.336 0.612,0.708 0.96,1.068 z"
         style="font-weight:500;font-size:12px;font-family:Semplicita-Medium, Semplicità;fill:#ffffff"
         id="path917" />
      <path
         d="m 46.918446,4.2400003 c 0,0.228 0.012,1.02 0.012,1.44 V 11.2 c 0,0.42 -0.012,1.212 -0.012,1.44 h 1.164 c 0,-0.228 -0.012,-1.02 -0.012,-1.44 V 5.6800003 c 0,-0.42 0.012,-1.212 0.012,-1.44 z"
         style="font-weight:500;font-size:12px;font-family:Semplicita-Medium, Semplicità;fill:#ffffff"
         id="path919" />
      <path
         d="m 49.046946,11.2 c 0.432,0.78 1.284,1.584 2.616,1.584 1.548,0 2.52,-0.948 2.52,-2.304 0,-1.3439997 -1.02,-2.0999997 -1.956,-2.7479997 -0.792,-0.552 -1.5,-0.984 -1.5,-1.716 0,-0.492 0.348,-0.912 1.008,-0.912 0.66,0 1.092,0.432 1.392,0.84 l 0.876,-0.66 c -0.468,-0.564 -1.152,-1.188 -2.268,-1.188 -1.272,0 -2.136,0.828 -2.136,1.968 0,1.224 1.02,1.908 1.956,2.568 0.768,0.54 1.488,1.068 1.488,1.9439997 0,0.66 -0.516,1.176 -1.38,1.176 -0.78,0 -1.332,-0.54 -1.644,-1.08 z"
         style="font-weight:500;font-size:12px;font-family:Semplicita-Medium, Semplicità;fill:#ffffff"
         id="path921" />
      <path
         d="m 59.770259,4.2280003 c -0.228,0 -1.02,0.012 -1.44,0.012 h -2.124 c -0.42,0 -1.212,-0.012 -1.44,-0.012 v 1.08 c 0.228,0 1.02,-0.012 1.44,-0.012 h 0.492 V 11.2 c 0,0.42 -0.012,1.212 -0.012,1.44 h 1.164 c 0,-0.228 -0.012,-1.02 -0.012,-1.44 V 5.2960003 h 0.492 c 0.42,0 1.212,0.012 1.44,0.012 z"
         style="font-weight:500;font-size:12px;font-family:Semplicita-Medium, Semplicità;fill:#ffffff"
         id="path923" />
      <path
         d="m 64.413821,12.64 h 1.248 c 0,0 -0.396,-0.804 -0.624,-1.296 l -1.056,-2.2439997 c -0.072,-0.156 -0.144,-0.264 -0.204,-0.324 l 0.012,-0.024 c 0.948,-0.228 1.584,-1.128 1.584,-2.184 0,-1.284 -0.924,-2.328 -2.328,-2.328 h -2.496 V 11.2 c 0,0.42 -0.012,1.212 -0.012,1.44 h 1.164 c 0,-0.228 -0.012,-1.02 -0.012,-1.44 V 8.8960003 h 0.984 l 1.26,2.6759997 c 0.192,0.396 0.36,0.804 0.48,1.068 z m -1.512,-7.4159997 c 0.852,0 1.332,0.6 1.332,1.332 0,0.732 -0.48,1.332 -1.332,1.332 h -1.212 v -2.664 z"
         style="letter-spacing:-0.02em"
         id="path925" />
      <path
         d="m 68.689822,12.64 h 1.164 c 0,-0.228 -0.012,-1.02 -0.012,-1.44 V 8.9560003 l 1.836,-3.24 c 0.288,-0.504 0.564,-0.996 0.852,-1.476 h -1.272 c -0.168,0.3 -0.324,0.6 -0.504,0.912 l -1.092,1.932 c -0.204,0.372 -0.396,0.756 -0.396,0.828 h -0.048 c 0,-0.072 -0.168,-0.456 -0.384,-0.828 l -1.128,-1.92 c -0.192,-0.324 -0.348,-0.612 -0.528,-0.924 h -1.296 c 0.108,0.192 0.696,1.14 0.912,1.5 l 1.908,3.252 V 11.2 c 0,0.42 -0.012,1.212 -0.012,1.44 z"
         id="path927" />
      <path
         d="m 81.307634,4.0000003 c -2.448,0 -4.44,1.992 -4.44,4.44 0,2.4479997 1.992,4.4399997 4.44,4.4399997 2.448,0 4.44,-1.992 4.44,-4.4399997 0,-2.448 -1.992,-4.44 -4.44,-4.44 z m 0,1.056 c 1.824,0 3.3,1.512 3.3,3.384 0,1.8719997 -1.476,3.3839997 -3.3,3.3839997 -1.824,0 -3.3,-1.512 -3.3,-3.3839997 0,-1.872 1.476,-3.384 3.3,-3.384 z"
         id="path929" />
      <path
         d="m 86.831384,11.2 c 0,0.42 -0.012,1.212 -0.012,1.44 h 1.164 c 0,-0.228 -0.012,-1.02 -0.012,-1.44 V 8.5600003 h 0.924 c 0.42,0 1.212,0.012 1.44,0.012 v -1.08 c -0.228,0 -1.02,0.012 -1.44,0.012 h -0.924 v -2.232 h 1.548 c 0.42,0 1.212,0.012 1.44,0.012 v -1.056 c -0.228,0 -1.02,0.012 -1.44,0.012 h -2.688 z"
         id="path931" />
      <path
         d="m 95.550134,12.64 h 2.58 c 2.255996,0 4.079996,-1.884 4.079996,-4.1999997 0,-2.316 -1.932,-4.2 -4.319996,-4.2 h -2.34 z m 2.136,-7.3679997 c 1.872,0 3.383996,1.416 3.383996,3.168 0,1.7399997 -1.403996,3.1439997 -3.131996,3.1439997 h -1.248 V 5.2720003 Z"
         id="path933" />
      <path
         d="m 103.28451,12.64 h 3.024 c 0.42,0 1.212,0.012 1.44,0.012 v -1.128 c -0.228,0 -1.02,0.012 -1.44,0.012 h -1.884 V 8.5840003 h 1.056 c 0.42,0 1.212,0.012 1.44,0.012 v -1.104 c -0.228,0 -1.02,0.012 -1.44,0.012 h -1.056 v -2.208 h 1.644 c 0.42,0 1.212,0.012 1.44,0.012 v -1.08 c -0.228,0 -1.02,0.012 -1.44,0.012 h -2.784 z"
         id="path935" />
      <path
         d="m 108.88607,11.2 c 0,0.42 -0.012,1.212 -0.012,1.44 h 1.164 c 0,-0.228 -0.012,-1.02 -0.012,-1.44 V 8.5600003 h 0.924 c 0.42,0 1.212,0.012 1.44,0.012 v -1.08 c -0.228,0 -1.02,0.012 -1.44,0.012 h -0.924 v -2.232 h 1.548 c 0.42,0 1.212,0.012 1.44,0.012 v -1.056 c -0.228,0 -1.02,0.012 -1.44,0.012 h -2.688 z"
         id="path937" />
      <path
         d="m 113.99545,12.64 h 3.024 c 0.42,0 1.212,0.012 1.44,0.012 v -1.128 c -0.228,0 -1.02,0.012 -1.44,0.012 h -1.884 V 8.5840003 h 1.056 c 0.42,0 1.212,0.012 1.44,0.012 v -1.104 c -0.228,0 -1.02,0.012 -1.44,0.012 h -1.056 v -2.208 h 1.644 c 0.42,0 1.212,0.012 1.44,0.012 v -1.08 c -0.228,0 -1.02,0.012 -1.44,0.012 h -2.784 z"
         id="path939" />
      <path
         d="M 127.04901,12.976 V 5.6800003 c 0,-0.42 0.012,-1.212 0.012,-1.44 h -1.164 c 0,0.228 0.012,1.02 0.012,1.44 v 3.84 c 0,0.456 0.06,0.7679997 0.084,0.8879997 l -0.036,0.024 c -0.24,-0.336 -0.612,-0.7079997 -0.96,-1.0679997 l -5.4,-5.46 V 11.2 c 0,0.42 -0.012,1.212 -0.012,1.44 h 1.164 c 0,-0.228 -0.012,-1.02 -0.012,-1.44 V 7.3600003 c 0,-0.456 -0.06,-0.768 -0.084,-0.888 l 0.036,-0.024 c 0.24,0.336 0.612,0.708 0.96,1.068 z"
         id="path941" />
      <path
         d="m 127.78945,11.2 c 0.432,0.78 1.284,1.584 2.616,1.584 1.548,0 2.52,-0.948 2.52,-2.304 0,-1.3439997 -1.02,-2.0999997 -1.956,-2.7479997 -0.792,-0.552 -1.5,-0.984 -1.5,-1.716 0,-0.492 0.348,-0.912 1.008,-0.912 0.66,0 1.092,0.432 1.392,0.84 l 0.876,-0.66 c -0.468,-0.564 -1.152,-1.188 -2.268,-1.188 -1.272,0 -2.136,0.828 -2.136,1.968 0,1.224 1.02,1.908 1.956,2.568 0.768,0.54 1.488,1.068 1.488,1.9439997 0,0.66 -0.516,1.176 -1.38,1.176 -0.78,0 -1.332,-0.54 -1.644,-1.08 z"
         id="path943" />
      <path
         d="m 133.94076,12.64 h 3.024 c 0.42,0 1.212,0.012 1.44,0.012 v -1.128 c -0.228,0 -1.02,0.012 -1.44,0.012 h -1.884 V 8.5840003 h 1.056 c 0.42,0 1.212,0.012 1.44,0.012 v -1.104 c -0.228,0 -1.02,0.012 -1.44,0.012 h -1.056 v -2.208 h 1.644 c 0.42,0 1.212,0.012 1.44,0.012 v -1.08 c -0.228,0 -1.02,0.012 -1.44,0.012 h -2.784 z"
         id="path945" />
    </g>
    <rect
       class="cls-1"
       x="18.989822"
       width="0.75"
       height="17.469999"
       id="rect19"
       y="0"
       style="fill:#109aed;fill-opacity:1;stroke-width:0.1" />
    <path
       class="cls-4"
       d="M 11.479821,13.15 A 6.29,6.29 0 1 0 0.69982143,8.74 6.21,6.21 0 0 0 2.5198214,13.15 v 0 0 a 6.3,6.3 0 0 0 8.9199996,0 v 0 z M 6.9998214,3.82 a 4.91,4.91 0 0 1 3.4899996,8.37 0.5,0.5 0 0 1 -0.6899996,0 0.47,0.47 0 0 1 -0.15,-0.35 V 8.68 a 1.06,1.06 0 0 0 0.4999996,0.13 1.1,1.1 0 1 0 0,-2.2 1.88,1.88 0 0 0 -1.8699996,1.88 v 3.34 a 1.86,1.86 0 0 0 0.55,1.33 l 0.11,0.09 a 4.38,4.38 0 0 1 -1.25,0.35 V 6.93 a 1.38,1.38 0 1 0 -1.38,0 v 6.67 a 4.54,4.54 0 0 1 -1.26,-0.35 l 0.12,-0.09 a 1.9,1.9 0 0 0 0.55,-1.33 V 8.49 a 1.88,1.88 0 0 0 -1.88,-1.88 1.1,1.1 0 1 0 0,2.2 1.06,1.06 0 0 0 0.5,-0.13 v 3.15 a 0.5,0.5 0 0 1 -0.84,0.36 4.91,4.91 0 0 1 3.5,-8.37 z"
       id="path21"
       style="fill:#ffffff;fill-opacity:1;stroke-width:0.1" />
  </g>
</svg>
